<svg width="22" height="24" viewBox="0 0 22 24" fill="none" xmlns="http://www.w3.org/2000/svg">
<path d="M18.7933 3.24324H16.5598V0.486486C16.5598 0.210811 16.3524 0 16.0812 0C15.81 0 15.6026 0.210811 15.6026 0.486486V3.24324H6.41334V0.486486C6.41334 0.210811 6.20595 0 5.93474 0C5.66352 0 5.45613 0.210811 5.45613 0.486486V3.24324H3.22263C1.43582 3.24324 0 4.7027 0 6.5027V20.7243C0 22.5405 1.43582 24 3.20667 24H18.7933C20.5642 24 22 22.5405 22 20.7405V6.5027C22 4.7027 20.5642 3.24324 18.7933 3.24324ZM21.0428 9.76216V20.7405C21.0428 22.0054 20.0377 23.027 18.7933 23.027H3.20667C1.96229 23.027 0.957215 22.0054 0.957215 20.7405V9.76216H21.0428ZM5.93474 5.88649C6.20595 5.88649 6.41334 5.67568 6.41334 5.4V4.21622H15.6026V5.4C15.6026 5.67568 15.81 5.88649 16.0812 5.88649C16.3524 5.88649 16.5598 5.67568 16.5598 5.4V4.21622H18.7933C20.0377 4.21622 21.0428 5.23784 21.0428 6.5027V8.78919H0.957215V6.5027C0.957215 5.23784 1.96229 4.21622 3.20667 4.21622H5.44017V5.4C5.45613 5.65946 5.66352 5.88649 5.93474 5.88649Z" fill="#AF913B"/>
</svg>
