<svg width="22" height="19" viewBox="0 0 22 19" fill="none" xmlns="http://www.w3.org/2000/svg">
<path d="M20.4574 9.62275C22.5142 7.4203 22.5142 3.85351 20.4574 1.65106C18.6373 -0.298006 15.7688 -0.551384 13.6756 1.05075L13.6174 1.09363C13.0932 1.49514 12.973 2.27476 13.348 2.8322C13.7229 3.38963 14.451 3.52217 14.9715 3.12066L15.0298 3.07778C16.1983 2.18511 17.7964 2.32544 18.8084 3.41302C19.9551 4.64093 19.9551 6.62898 18.8084 7.85689L14.724 12.2384C13.5773 13.4663 11.7208 13.4663 10.5741 12.2384C9.55845 11.1508 9.4274 9.43954 10.261 8.19213L10.3011 8.12976C10.676 7.56843 10.5522 6.7888 10.0317 6.39119C9.51113 5.99358 8.77943 6.12222 8.40812 6.67966L8.36808 6.74203C6.86829 8.97956 7.10491 12.0513 8.92504 14.0004C10.9818 16.2028 14.3127 16.2028 16.3694 14.0004L20.4574 9.62275ZM1.54257 8.71058C-0.514189 10.913 -0.514189 14.4798 1.54257 16.6823C3.3627 18.6313 6.23124 18.8847 8.3244 17.2826L8.38264 17.2397C8.90684 16.8382 9.02697 16.0586 8.65202 15.5011C8.27707 14.9437 7.54902 14.8112 7.02846 15.2127L6.97022 15.2556C5.80169 16.1482 4.20361 16.0079 3.19161 14.9203C2.04492 13.6885 2.04492 11.7005 3.19161 10.4725L7.276 6.09494C8.42269 4.86702 10.2792 4.86702 11.4259 6.09494C12.4415 7.18252 12.5726 8.8938 11.739 10.1451L11.6989 10.2075C11.324 10.7688 11.4478 11.5484 11.9683 11.946C12.4889 12.3436 13.2206 12.215 13.5919 11.6576L13.6319 11.5952C15.1317 9.35378 14.8951 6.28205 13.075 4.33298C11.0182 2.13053 7.68735 2.13053 5.6306 4.33298L1.54257 8.71058Z" fill="#AF913B"/>
</svg>
