<svg width="23" height="22" viewBox="0 0 23 22" fill="none" xmlns="http://www.w3.org/2000/svg">
<path d="M9.61829 18.607C10.9633 18.8979 10.809 19.3931 10.5067 21.213C10.4573 21.5039 10.2723 22.3519 11.5 21.8382C12.7277 21.3244 18.1199 17.9261 20.5384 15.1406C22.2041 13.3022 23 11.439 23 9.37779V9.36541C23 4.20298 17.8361 0 11.5 0C5.1639 0 0 4.20298 0 9.36541C0 13.9893 4.0904 17.8704 9.61829 18.607ZM15.72 7.09369C15.72 6.9637 15.831 6.86466 15.9482 6.86466H19.1687C19.2921 6.86466 19.3908 6.97608 19.397 7.09369V7.89839C19.397 8.02837 19.2983 8.12741 19.1687 8.12741H16.9785V8.97544H19.1687C19.2983 8.97544 19.397 9.07448 19.397 9.20447V10.0154C19.397 10.1453 19.2983 10.2444 19.1687 10.2444H16.9785V11.0862H19.1687C19.2983 11.0862 19.397 11.1853 19.397 11.3152V12.1261C19.397 12.2561 19.2983 12.3552 19.1687 12.3552H15.9482C15.8187 12.3552 15.72 12.2437 15.72 12.1261V7.09369ZM10.1674 7.09988C10.1674 6.96989 10.2661 6.87085 10.3957 6.87085H11.1915C11.2594 6.87085 11.3396 6.90799 11.3766 6.96989L13.6778 10.0834V7.09988C13.6778 6.96989 13.7766 6.87085 13.9061 6.87085H14.7082C14.8377 6.86466 14.9426 6.96989 14.9426 7.0875V7.09369V12.1261C14.9426 12.2561 14.8439 12.3552 14.7143 12.3552H13.9123C13.8321 12.3552 13.7642 12.3118 13.7272 12.2623L11.426 9.14876V12.1323C11.426 12.2623 11.3273 12.3613 11.1977 12.3613H10.3957C10.2661 12.3613 10.1674 12.2623 10.1674 12.1323V7.09988ZM8.13144 7.09369C8.13144 6.9637 8.23015 6.86466 8.35971 6.86466H9.16175C9.29131 6.86466 9.39002 6.97608 9.39002 7.09369V12.1261C9.39002 12.2561 9.29131 12.3552 9.16175 12.3552H8.35971C8.23015 12.3552 8.13144 12.2561 8.13144 12.1261V7.09369ZM3.76958 7.09369C3.76958 6.9637 3.86829 6.86466 3.99785 6.86466H4.79989C4.92945 6.86466 5.02817 6.9637 5.02817 7.09369V11.08H7.21835C7.33557 11.08 7.43428 11.1914 7.43428 11.3091V12.1137C7.43428 12.2437 7.33557 12.3428 7.20601 12.3428H3.98551C3.92382 12.3428 3.87446 12.318 3.83128 12.2809C3.78809 12.2375 3.76958 12.188 3.76958 12.1261V7.09369Z" fill="#AF913B"/>
</svg>
