<svg width="28" height="27" viewBox="0 0 28 27" fill="none" xmlns="http://www.w3.org/2000/svg">
<path d="M11.7092 22.8359C13.3466 23.1929 13.1588 23.8007 12.7908 26.0341C12.7307 26.3912 12.5054 27.4319 14 26.8014C15.4946 26.1709 22.059 22.0002 25.0032 18.5817C27.0311 16.3255 28 14.0388 28 11.5091V11.4939C28 5.1582 21.7135 0 14 0C6.28648 0 0 5.1582 0 11.4939C0 17.1687 4.97961 21.9319 11.7092 22.8359ZM19.1373 8.70589C19.1373 8.54636 19.2725 8.42481 19.4152 8.42481H23.3358C23.4861 8.42481 23.6062 8.56155 23.6137 8.70589V9.69347C23.6137 9.85301 23.4936 9.97455 23.3358 9.97455H20.6695V11.0153H23.3358C23.4936 11.0153 23.6137 11.1369 23.6137 11.2964V12.2916C23.6137 12.4511 23.4936 12.5726 23.3358 12.5726H20.6695V13.6058H23.3358C23.4936 13.6058 23.6137 13.7274 23.6137 13.8869V14.8821C23.6137 15.0416 23.4936 15.1631 23.3358 15.1631H19.4152C19.2575 15.1631 19.1373 15.0264 19.1373 14.8821V8.70589ZM12.3777 8.71349C12.3777 8.55396 12.4979 8.43241 12.6556 8.43241H13.6245C13.7071 8.43241 13.8047 8.47799 13.8498 8.55396L16.6513 12.3751V8.71349C16.6513 8.55396 16.7715 8.43241 16.9292 8.43241H17.9056C18.0633 8.42481 18.191 8.55396 18.191 8.6983V8.70589V14.8821C18.191 15.0416 18.0708 15.1631 17.9131 15.1631H16.9367C16.8391 15.1631 16.7564 15.11 16.7114 15.0492L13.9099 11.228V14.8897C13.9099 15.0492 13.7897 15.1707 13.632 15.1707H12.6556C12.4979 15.1707 12.3777 15.0492 12.3777 14.8897V8.71349ZM9.89914 8.70589C9.89914 8.54636 10.0193 8.42481 10.177 8.42481H11.1534C11.3112 8.42481 11.4313 8.56155 11.4313 8.70589V14.8821C11.4313 15.0416 11.3112 15.1631 11.1534 15.1631H10.177C10.0193 15.1631 9.89914 15.0416 9.89914 14.8821V8.70589ZM4.58906 8.70589C4.58906 8.54636 4.70923 8.42481 4.86695 8.42481H5.84335C6.00107 8.42481 6.12124 8.54636 6.12124 8.70589V13.5982H8.78755C8.93026 13.5982 9.05043 13.735 9.05043 13.8793V14.8669C9.05043 15.0264 8.93026 15.148 8.77253 15.148H4.85193C4.77682 15.148 4.71674 15.1176 4.66416 15.072C4.61159 15.0188 4.58906 14.958 4.58906 14.8821V8.70589Z" fill="white"/>
</svg>
