<svg width="188" height="94" viewBox="0 0 188 94" fill="none" xmlns="http://www.w3.org/2000/svg">
<path fill-rule="evenodd" clip-rule="evenodd" d="M160.037 44.7261C161.465 45.0268 162.592 45.0268 163.457 45.2899C164.584 44.9892 165.449 44.9892 166.013 44.9892L166.877 41.8697C163.457 41.8697 161.465 39.8777 160.337 35.8937L155.226 39.577C156.316 42.4335 158.045 44.1248 160.037 44.7261Z" fill="white"/>
<path fill-rule="evenodd" clip-rule="evenodd" d="M187.023 66.0368C185.031 67.1644 182.475 67.7281 179.355 68.0288C177.1 67.7281 175.672 66.9013 175.371 65.473C176.499 65.1723 177.664 64.3455 179.355 62.9173L179.919 62.3535C184.768 58.1064 187.023 54.6861 187.023 51.8297C187.023 50.1384 186.158 49.2739 184.467 49.2739C183.039 49.2739 181.347 49.8377 179.355 51.5666C179.055 51.5666 179.055 51.8673 178.792 52.1304C176.537 53.8217 174.545 56.1144 172.816 58.6701C172.365 59.3467 171.951 60.0232 171.613 60.6622L160.3 68.6302C159.999 68.3295 159.999 68.3295 159.999 68.0664C159.999 67.2019 160.3 65.5106 161.127 62.9548C163.119 56.9788 165.111 52.7317 167.667 50.7397L165.975 49.3115C164.848 50.439 162.555 51.8673 158.872 54.16L159.736 55.8513C159.172 56.6406 158.571 57.9185 157.894 59.6474L137.561 68.9308C137.26 68.9308 136.997 68.3671 136.697 66.9388C136.697 65.2475 137.26 62.9548 137.824 60.3991C138.689 57.8433 139.515 55.8513 140.38 54.16L145.792 53.5962C148.649 53.2955 150.34 53.0324 150.904 52.7317V49.6122C150.603 49.6122 150.34 49.6122 149.776 49.9129C146.657 49.6122 144.928 49.3491 144.665 49.0484C144.101 48.7477 143.537 47.9209 143.537 47.0564C143.537 45.3651 144.665 43.0724 146.957 40.5166C146.957 40.2159 146.657 40.2159 146.393 40.2159C143.838 40.2159 141.282 43.0724 138.989 48.7477C137.298 49.6122 136.133 49.8753 136.133 50.176C135.569 50.4766 135.569 50.7397 135.268 51.0404C135.832 51.9049 136.396 52.7317 136.697 53.5962L135.268 57.9184L114.822 68.9684C114.521 68.6678 114.258 68.104 113.958 66.9764C113.958 65.2851 114.521 62.9924 115.085 60.4366C115.95 57.5802 116.776 55.5882 117.641 54.1975L123.053 53.3331C125.91 53.0324 127.601 52.7693 128.165 52.7693V49.6498C127.864 49.6498 127.601 49.6498 127.037 49.6498C123.918 49.3491 122.189 49.086 121.926 49.086C121.362 48.5222 120.798 47.9584 120.798 46.7933C120.798 45.102 121.926 43.11 124.218 40.5542C124.218 40.2535 123.918 39.9904 123.655 39.9904C121.099 39.9904 118.806 42.8469 116.25 48.5222C114.559 49.3867 113.394 49.9504 113.394 49.9504C112.83 50.2511 112.83 50.5142 112.83 51.078C113.131 51.9424 113.695 52.7693 113.958 53.3331L111.402 61.3011C111.176 62.128 110.988 62.9173 110.838 63.6689L107.155 67.5778L104.9 69.2691C104.035 70.1336 103.208 70.6973 102.607 70.6973C102.306 69.8329 102.043 69.2691 102.043 69.2691C102.043 67.5778 102.607 65.022 103.471 61.8649C104.336 58.7453 105.163 56.1895 106.027 54.4606C106.328 53.8969 106.328 53.3331 106.328 53.3331C106.328 52.4686 106.027 51.9049 105.2 51.9049C104.336 51.9049 103.509 52.2055 102.645 52.7693L105.764 50.4766C104.9 49.6122 103.772 49.3491 101.78 49.3491H101.216C98.6605 49.9129 96.1048 51.3411 93.549 53.0324C93.2483 53.5962 92.6845 53.8969 92.1208 54.16C89.2643 56.7157 87.0092 59.5722 85.2803 62.6917C85.2427 62.7669 85.1675 62.8797 85.13 62.9548L78.4398 66.112C76.4478 67.2395 73.892 67.8033 70.7725 68.104C68.4798 67.8033 67.0892 66.9764 66.7885 65.5482C67.916 65.2475 69.0436 64.4206 70.7725 62.9924L71.3363 62.4286C76.1847 58.1815 78.4398 54.7613 78.4398 51.9049C78.4398 50.2135 77.5754 49.3491 75.884 49.3491C74.4558 49.3491 72.7645 49.9129 70.7725 51.6418C70.4718 51.6418 70.4718 51.9424 70.2087 52.2055C67.9536 53.8969 65.9616 56.1895 64.2327 58.7453C63.1052 60.4366 62.3535 62.0152 61.9776 63.481C61.3011 63.1052 60.5494 62.7669 59.6849 62.4286C56.8285 61.5642 53.7089 60.7373 49.7249 60.7373L43.7489 60.4366L36.6453 60.136C30.97 59.8353 28.1136 59.5722 28.1136 59.0084H27.8129C28.1136 58.4446 29.8049 57.3171 33.2251 55.3251L43.7489 49.9129L46.6054 48.4846C58.8205 41.9448 64.7965 37.0964 64.7965 33.4131C64.4958 32.2855 62.2407 31.1204 58.2567 30.5566C54.5734 29.6922 50.2887 29.1284 45.4778 29.1284C44.914 29.1284 44.3503 29.1284 43.7865 29.1284C42.3583 29.4291 40.6669 29.4291 38.938 29.6922C38.3742 27.7001 37.8105 26.8357 36.6453 26.8357C35.7809 26.8357 34.0896 27.9632 31.5338 29.9552L24.4302 30.519C18.1911 30.2183 14.4702 29.6546 13.3427 28.2263C10.2231 31.3459 8.79488 33.3379 8.4942 34.4654C8.79488 34.7661 8.79488 34.7661 8.79488 34.7661V35.0292C9.35866 35.8937 11.05 36.4574 13.9064 36.7205C15.034 36.7205 17.5898 36.4199 21.5738 35.8561C25.2571 35.5554 27.5498 35.2923 28.1136 35.2923C26.6853 37.585 25.2571 41.2683 23.5658 46.3799C22.1375 51.4914 21.3107 55.4754 21.3107 58.0312C20.1831 58.595 19.018 59.1588 18.1911 60.0232C17.0636 60.8877 16.7629 61.4514 16.7629 62.0152C16.7629 63.1428 17.8904 64.0072 20.4462 64.3079C20.1455 67.9912 19.3187 74.2679 17.5898 82.7997L22.4382 81.3715C22.4382 80.8077 22.7389 79.0788 23.002 76.2599C24.1295 69.4194 24.6933 65.7361 25.2947 64.8717C25.8585 64.8717 26.4222 64.8717 26.4222 64.8717C26.7229 64.8717 27.5498 64.8717 29.2787 64.3079C32.6989 63.7441 37.5098 63.1803 43.7865 63.1803C44.6509 63.1803 45.7785 63.1803 46.6429 63.1803C51.4914 63.1803 55.1747 63.481 58.2943 64.3079C59.7601 64.6837 60.8876 65.1348 61.7145 65.661C61.7521 67.3147 62.0152 68.6302 62.579 69.6825C61.3763 70.998 58.7829 72.5014 54.8741 74.2679C51.4538 75.9592 47.7705 77.3875 43.7865 78.8157C40.93 79.6801 38.1112 80.507 35.2547 81.3715C27.5874 83.3635 21.3107 84.2279 16.1991 84.2279C13.6433 84.2279 11.3507 83.9272 10.2231 83.3635C10.2231 82.2359 10.7869 81.0708 12.2151 79.6801C13.3427 78.5526 14.5078 77.6881 15.8984 77.1244V74.5686C15.8984 74.2679 15.5978 74.2679 15.034 74.2679C14.1695 74.2679 12.4782 75.1324 9.92243 76.8237C7.36665 78.8157 5.07397 80.8077 3.11955 82.7997C0.826869 84.7917 0 86.2199 0 86.7837C0.30068 89.0764 3.42023 90.2039 9.09556 90.2039C14.7709 90.2039 22.4758 88.7757 31.8345 85.9568C36.0816 84.8293 40.0656 83.6641 43.7865 82.2735C48.3343 80.5822 52.3183 78.8533 55.7385 77.1619C59.497 75.0196 62.2407 73.0652 63.8944 71.3363C64.9844 72.2007 66.4502 72.6142 68.2543 72.6142C68.8181 72.6142 69.6825 72.3135 70.8101 72.0504C74.4182 71.0356 79.6801 68.3671 83.9648 65.2851C82.9124 67.6905 82.4614 69.9456 82.4614 72.0504L86.1447 71.7497C87.573 69.7577 90.1287 67.2019 93.549 63.5186C95.541 61.5266 97.7961 59.5346 100.389 56.9788C99.8257 58.4071 99.2619 60.6622 98.3974 64.0824C97.8337 67.7657 97.2699 70.6222 97.2699 72.3135C97.2699 73.7417 97.5706 74.6062 98.1343 74.6062C99.8257 74.6062 101.818 74.0424 103.81 72.6142C105.275 71.7497 108.658 67.1268 110.763 64.2327C110.312 66.2247 109.974 67.916 109.786 69.4946C110.086 71.7873 110.65 72.9148 112.041 72.9148C113.168 72.9148 115.461 72.0504 118.581 70.3591C120.836 69.1188 131.059 61.6769 135.193 58.3695L134.216 61.2635C133.351 64.6837 132.788 67.5026 132.525 69.4946C132.825 71.7873 133.389 72.9148 134.817 72.9148C135.945 72.9148 138.238 72.0504 141.357 70.3591C143.913 68.9684 152.933 63.7817 157.669 60.5118C157.443 61.1132 157.218 61.7145 156.992 62.3911C155.865 66.0744 155.301 68.6302 155.301 70.3591C155.602 71.7873 156.429 72.6518 157.594 72.6518C158.721 72.6518 160.15 72.088 161.578 70.9604C162.705 70.096 164.134 68.9684 165.261 67.5402C166.126 66.8637 169.057 64.0072 171.237 61.8273C170.673 63.1428 170.373 64.3831 170.373 65.5482C170.373 70.3967 172.628 72.6518 176.912 72.6518C177.777 72.6518 178.604 72.6518 179.468 72.3511C182.588 71.7873 185.444 70.0584 188 67.2395L187.023 66.0368ZM31.5338 44.1248C33.5258 39.2763 34.954 36.1568 36.0816 34.4654C37.5098 34.1648 40.0656 33.9017 43.7489 33.9017C44.6134 33.9017 45.1771 33.9017 46.004 33.9017C55.4002 33.9017 60.2111 34.7661 60.2111 36.7581C60.2111 37.6226 54.7989 41.0052 43.7113 46.7181C39.1635 49.2739 33.7513 51.8297 27.2115 54.9492C27.5498 52.9572 28.978 49.537 31.5338 44.1248ZM68.4798 56.3775C69.0436 55.2499 69.908 54.3855 70.7725 53.8217C71.6369 53.2579 72.7645 52.6941 73.892 52.6941C74.7565 52.6941 75.0196 53.2579 75.0196 53.8217C75.0196 54.6861 74.4558 55.8137 73.5914 57.505C72.7269 58.9332 71.5994 60.0608 70.7349 60.9252C69.3067 62.6166 67.8784 63.7817 66.4878 64.0448C66.4878 61.1883 67.3523 58.6326 68.4798 56.3775ZM96.3303 57.8057L93.4738 60.6622C90.3543 64.0824 88.0616 66.3375 87.4978 67.2019C87.7985 63.7817 88.926 60.6622 91.1811 58.6701C91.7449 57.8057 92.6094 56.9788 93.4738 56.3775C95.4658 55.2499 97.4578 54.6861 99.7129 54.3855C99.4498 54.6486 98.3223 55.8137 96.3303 57.8057ZM177.1 56.3775C177.664 55.2499 178.529 54.3855 179.355 53.8217C180.22 53.2579 181.347 52.6941 182.475 52.6941C183.339 52.6941 183.603 53.2579 183.603 53.8217C183.603 54.6861 183.039 55.8137 182.174 57.505C181.31 58.9332 180.182 60.0608 179.318 60.9252C177.89 62.6166 176.461 63.7817 175.071 64.0448C175.108 61.1883 175.935 58.6326 177.1 56.3775Z" fill="white"/>
<path d="M44.3127 25.9337C44.3127 25.9337 94.0752 -2.78124 154.324 32.4734" stroke="white" stroke-width="0.81"/>
<path fill-rule="evenodd" clip-rule="evenodd" d="M51.4161 12.591C51.1154 12.591 50.8523 12.2903 50.2886 12.591C49.9879 12.591 49.4241 12.591 48.8603 12.8916C49.4241 12.3279 49.7248 12.3279 49.7248 12.0272C50.0255 11.7265 50.2886 11.4634 50.5892 11.1627C50.5892 10.8621 50.8899 10.599 50.8899 10.2983C50.8899 9.9976 50.8899 9.43382 50.5892 9.17073C50.5892 8.87005 50.2886 8.60695 50.0255 8.60695C49.4617 8.30627 49.161 8.30627 48.5972 8.30627C48.2966 8.60695 47.7328 8.60695 47.169 8.87005H46.8683C46.5677 9.17073 46.3046 9.43382 45.7408 9.43382C44.8763 9.9976 44.6132 10.2983 44.3126 10.2983L42.3206 11.1627V11.4634H42.6212C42.9219 11.4634 43.185 11.1627 43.4857 11.1627C43.4857 11.1627 43.4857 11.1627 43.7864 11.1627C43.7864 11.1627 43.7864 11.1627 43.7864 11.4634C43.7864 11.4634 44.0871 12.0272 44.3501 13.1547C44.6508 14.583 44.9139 15.7105 45.2146 16.8381C45.2146 17.9656 45.5153 18.5294 45.5153 18.8301C45.2146 19.1307 45.2146 19.1307 44.6508 19.6945V19.9952C45.5153 19.4314 46.0791 19.1307 46.6428 19.1307C46.6428 18.8301 46.9435 18.8301 47.2066 18.8301L48.0711 18.5294C48.6348 18.2287 48.9355 17.9656 49.1986 17.9656C50.0631 17.6649 50.6268 17.1012 50.8899 16.8381C51.1906 16.5374 51.4537 16.2743 51.7544 15.7105C52.0551 15.4098 52.3182 15.1467 52.3182 14.583C52.3182 14.2823 52.3182 13.7185 52.0175 13.4554C51.9799 13.1547 51.7168 12.8541 51.4161 12.591ZM46.3046 13.7185C46.3046 13.7185 46.0039 13.1547 46.0039 12.0272L45.7032 10.599L45.4025 10.2983C45.7032 10.2983 45.9663 9.9976 46.267 9.9976C46.5677 9.69692 46.8308 9.69692 47.1314 9.69692C47.4321 9.69692 47.4321 9.39624 47.6952 9.39624C47.9959 9.39624 47.9959 9.69692 48.259 9.69692C48.5597 9.9976 48.5597 9.9976 48.8228 10.2607C48.8228 10.5614 48.8228 10.8245 48.8228 11.1251C48.8228 11.4258 48.8228 11.6889 48.8228 11.9896C48.8228 11.9896 48.5221 12.2903 48.5221 12.5534C48.2214 12.5534 47.9583 12.8541 47.9583 13.1171C47.6576 13.1171 47.3945 13.1171 47.0938 13.4178C47.0938 13.4178 47.0938 13.4178 46.7932 13.4178C46.6052 13.7185 46.6052 13.7185 46.3046 13.7185ZM50.2886 15.4098C50.2886 15.9736 50.2886 16.2743 49.9879 16.5374C49.6872 16.8381 49.4241 17.1012 49.1234 17.4018C48.5597 17.4018 47.9959 17.7025 47.4321 17.9656L47.1314 17.6649C47.1314 17.3642 47.1314 16.8005 46.8308 16.5374C46.5301 15.1092 46.5301 14.5454 46.5301 14.2447C46.8308 14.2447 47.0938 13.944 47.0938 13.944C47.9583 13.6433 48.2214 13.3802 48.5221 13.3802C48.8228 13.3802 49.0859 13.3802 49.3865 13.6809C49.6872 13.6809 49.9503 13.9816 50.251 14.2447C50.2886 14.583 50.2886 15.1467 50.2886 15.4098Z" fill="white"/>
<path fill-rule="evenodd" clip-rule="evenodd" d="M60.2487 8.30632C59.948 8.00564 59.948 8.00564 59.6849 8.00564C59.3843 7.70496 59.1212 7.70496 58.8205 7.70496C58.2567 7.70496 57.956 7.70496 57.6929 8.00564H57.3923C57.0916 8.00564 56.5278 8.30632 56.2647 8.56941C55.7009 8.87009 55.4003 9.43386 55.1372 9.69696C54.8365 9.99764 54.5734 10.2607 54.5734 10.5614C54.5734 10.8621 54.2727 11.4259 54.2727 11.9896C54.2727 12.5534 54.2727 13.1172 54.5734 13.681C54.5734 13.9816 54.8741 14.2447 55.1372 14.5454C55.4378 14.8461 55.7009 14.8461 56.0016 15.1092C56.5654 15.1092 56.8661 15.1092 57.4298 14.8085H57.7305C58.0312 14.5078 58.595 14.5078 58.8581 14.2447C59.1588 13.9441 59.4218 13.681 59.7225 13.1172C60.2863 12.8165 60.2863 12.5534 60.587 12.2527C60.8877 11.9521 60.8877 11.3883 60.8877 10.8245C60.8877 10.2607 60.8877 9.69696 60.587 9.13318C60.5118 8.87009 60.5118 8.607 60.2487 8.30632ZM59.0836 12.8541C59.0836 13.1548 58.7829 13.4179 58.7829 13.4179C58.4822 13.7185 58.2191 13.9816 57.9184 13.9816H57.6178C57.3171 13.9816 57.054 13.9816 56.7533 13.9816C56.4526 13.681 56.4526 13.4179 56.1895 13.1172C55.8889 12.5534 55.8889 11.689 55.8889 11.1252C55.8889 10.2607 55.8889 9.69696 56.1895 9.43386C56.4902 9.13318 56.7533 8.87009 57.054 8.56941C57.3547 8.56941 57.3547 8.56941 57.6178 8.56941C57.6178 8.56941 57.9184 8.56941 58.1815 8.87009C58.4822 8.87009 58.7453 9.17077 58.7453 9.73454C59.046 10.2983 59.046 10.8621 59.046 11.7265C59.0836 12.0272 59.0836 12.591 59.0836 12.8541Z" fill="white"/>
<path fill-rule="evenodd" clip-rule="evenodd" d="M69.6074 10.0352C69.6074 10.3359 69.6074 10.3359 69.3067 10.3359L69.006 10.0352C69.006 10.0352 69.006 9.73457 69.006 9.47147C69.006 8.9077 69.006 8.34392 69.006 7.17879C69.3067 6.31434 69.3067 5.48747 69.3067 4.88611C68.7429 5.18679 68.1791 5.44988 67.6153 5.44988C67.6153 6.01366 67.6153 6.31434 67.6153 7.14121C67.6153 7.70498 67.3147 8.26875 67.0516 8.83253C67.0516 9.3963 66.7509 9.69698 66.4878 9.96008C66.1871 10.5239 66.1871 10.8245 65.924 10.8245C65.6233 11.1252 65.6233 11.1252 65.6233 11.1252C65.3227 11.1252 65.3227 11.1252 65.3227 11.1252C65.3227 11.1252 65.3227 11.1252 65.3227 10.8245C65.022 10.8245 65.022 10.5239 65.022 10.5239C65.022 9.96008 65.3227 9.3963 65.3227 7.96807C65.3227 7.4043 65.3227 6.84053 65.3227 6.53985V6.23917C65.3227 5.93849 65.3227 5.93849 65.022 5.93849C65.022 5.63781 64.7213 5.63781 64.7213 5.63781C64.4206 5.93849 64.1575 5.93849 63.8569 6.20158C63.5562 6.50226 62.9924 7.06604 62.1655 7.8929L62.4662 8.19358C63.03 7.62981 63.3307 7.32913 63.3307 7.32913C63.6313 7.32913 63.6313 7.32913 63.6313 7.32913C63.6313 7.32913 63.6313 7.32913 63.6313 7.62981C63.932 7.62981 63.932 7.93049 63.6313 8.19358C63.6313 8.75736 63.6313 9.32113 63.6313 10.1856C63.6313 10.7494 63.6313 11.3131 63.6313 11.3131C63.6313 11.6138 63.6313 11.8769 63.6313 11.8769C63.6313 12.1776 63.6313 12.4407 63.932 12.4407C64.2327 12.4407 64.2327 12.4407 64.4958 12.4407C64.7965 12.4407 64.7965 12.4407 65.0596 12.14C65.3602 11.8393 65.924 11.5762 66.1871 11.0125C66.7509 10.7118 67.0516 10.148 67.3147 9.58423C67.3147 9.28355 67.6153 8.71977 67.6153 8.45668V9.88491C67.6153 10.1856 67.6153 10.7494 67.916 10.7494C67.916 11.05 67.916 11.05 67.916 11.05C67.916 11.3507 67.916 11.3507 68.2167 11.6138C68.2167 11.6138 68.2167 11.6138 68.5174 11.6138C68.5174 11.6138 68.8181 11.6138 68.8181 11.3131C68.8181 11.3131 69.1187 11.3131 69.3818 11.0125C69.6825 10.7118 69.6825 10.4487 69.9456 10.148L70.8101 9.58423L70.5094 9.28355C69.908 9.73457 69.6074 10.0352 69.6074 10.0352Z" fill="white"/>
<path fill-rule="evenodd" clip-rule="evenodd" d="M74.7188 4.05916C75.0195 2.93161 75.0195 2.36784 75.2826 1.76648H74.9819L73.8544 2.06716C73.8544 2.36784 73.5537 2.36784 73.2906 2.36784C73.2906 2.93161 73.2906 3.23229 73.2906 3.79607C73.2906 4.09675 73.2906 4.35984 73.2906 4.35984C72.4261 4.66052 71.8624 4.92362 71.5993 4.92362L71.2986 5.48739L72.9899 5.18671C72.9899 5.48739 72.9899 6.05116 72.9899 6.87803C72.6892 8.30626 72.6892 9.17072 72.6892 9.43381C72.6892 9.43381 72.6892 9.73449 72.6892 9.99759C72.6892 9.99759 72.9899 10.2983 72.9899 10.5614C73.2906 10.5614 73.5537 10.5614 73.8544 10.5614C73.8544 10.5614 74.155 10.5614 74.4181 10.2607C74.7188 10.2607 74.9819 9.96 75.5457 9.39623C76.1095 9.09555 76.4101 8.83245 76.6732 8.53177L76.3726 8.23109C76.0719 8.53177 75.8088 8.79487 75.5081 9.09555C75.2074 9.09555 74.9443 9.09555 74.9443 9.39623C74.6436 9.39623 74.6436 9.39623 74.6436 9.09555C74.343 9.09555 74.343 9.09555 74.343 9.09555C74.343 8.79487 74.343 8.79487 74.343 8.79487C74.343 8.79487 74.343 8.49419 74.343 7.93041C74.6436 6.50218 74.6436 5.93841 74.6436 5.93841C74.6436 5.37464 74.6436 4.81086 74.6436 4.81086L75.5081 4.51018C76.0719 4.51018 76.3726 4.51018 76.9363 4.51018C76.9363 4.2095 76.9363 3.94641 76.9363 3.64573C76.6357 3.64573 76.0719 3.94641 75.5081 3.94641H74.7188V4.05916Z" fill="white"/>
<path fill-rule="evenodd" clip-rule="evenodd" d="M81.2586 8.30635C80.9579 8.30635 80.9579 8.30635 80.9579 8.60703L80.6572 8.30635C80.6572 8.30635 80.6572 8.00567 80.6572 7.74257C80.6572 7.44189 80.9579 6.87812 80.9579 5.75057C81.2586 4.88612 81.2586 4.32234 81.5217 4.05925C81.5217 3.75857 81.5217 3.75857 81.5217 3.49547L81.221 3.19479C81.221 3.19479 80.9203 2.89411 80.9203 3.19479C80.6196 3.19479 80.6196 3.19479 80.3566 3.19479C80.3566 3.19479 80.0559 3.49547 79.7928 3.49547C79.4921 3.79615 79.229 3.79615 78.6652 4.35993L77.8008 4.9237L78.1015 5.48747C78.6652 4.9237 79.229 4.62302 79.229 4.62302H79.5297C79.5297 4.9237 79.5297 5.75057 79.229 7.1788C78.9283 7.74257 78.9283 8.30635 78.9283 8.60703C78.9283 8.90771 78.9283 8.90771 78.9283 9.1708C78.9283 9.47148 78.9283 9.47148 79.229 9.73457C79.229 9.73457 79.229 9.73457 79.5297 9.73457C79.8304 9.73457 79.8304 9.73457 80.0935 9.73457C80.0935 9.43389 80.6572 9.1708 80.9579 8.87012C81.5217 8.56944 82.0855 8.30635 82.3861 8.00567L82.0855 7.70499C81.86 8.04325 81.5593 8.30635 81.2586 8.30635Z" fill="white"/>
<path fill-rule="evenodd" clip-rule="evenodd" d="M80.9955 1.76649C81.2961 1.76649 81.5592 1.76649 81.5592 1.46581C81.8599 1.16513 81.8599 0.902039 81.8599 0.601359C81.8599 0.601359 81.8599 0.30068 81.5592 0.30068C81.5592 0 81.2586 0 80.9955 0C80.6948 0 80.4317 0.30068 80.131 0.30068C80.131 0.601359 79.8303 0.864454 79.8303 1.16513C80.131 1.46581 80.131 1.46581 80.131 1.72891C80.4317 1.76649 80.6948 1.76649 80.9955 1.76649Z" fill="white"/>
<path fill-rule="evenodd" clip-rule="evenodd" d="M90.0909 2.9316C89.7902 2.63092 89.5271 2.63092 89.2264 2.63092C88.9258 2.63092 88.6627 2.63092 88.0989 2.63092C87.7982 2.63092 87.5351 2.63092 87.2344 2.9316C86.9338 2.9316 86.37 3.23228 85.8062 3.79605C85.2424 4.09673 84.9418 4.35983 84.6787 4.66051C84.378 4.96118 84.1149 5.52496 84.1149 6.08873C83.8142 6.95319 83.8142 7.51696 83.8142 8.08074C83.8142 8.38142 83.8142 8.64451 83.8142 8.94519C84.1149 9.24587 84.378 9.24587 84.6787 9.24587C84.9793 9.24587 85.5431 8.94519 86.1069 8.6821C86.4076 8.38142 86.9713 8.11832 87.2344 7.81764C87.7982 7.25387 88.0989 6.95319 88.6627 6.38941L88.362 7.81764C88.0613 9.24587 88.0613 10.1103 88.0613 10.3734C87.7606 11.2379 87.4975 11.8016 87.1969 11.8016C87.1969 12.1023 87.1969 12.1023 87.1969 12.1023C87.1969 12.1023 86.8962 12.1023 86.8962 12.403V12.7037L87.1969 12.403C87.4975 12.403 87.7606 12.403 88.3244 12.403C88.6251 12.1023 88.8882 12.1023 89.1889 12.1023C88.8882 12.1023 88.8882 12.1023 88.8882 12.1023C88.8882 11.8016 88.8882 11.5386 89.1889 10.9748L89.7526 7.29145C90.3164 5.60013 90.6171 4.1719 90.6171 3.60813C90.9178 3.04435 90.9178 2.74367 90.9178 2.74367L90.6171 2.44299L90.0909 2.9316ZM88.362 5.75047C88.0613 6.05115 87.7982 6.31424 87.4975 6.87802L87.1969 7.1787C86.8962 7.47938 86.6331 7.74247 86.3324 7.74247C86.0317 8.04315 86.0317 8.04315 85.7686 8.04315H85.4679V7.74247C85.4679 7.44179 85.4679 7.1787 85.4679 6.61492C85.7686 6.05115 85.7686 5.48737 86.0317 4.9236C86.3324 4.35983 86.3324 4.05915 86.5955 3.79605C86.5955 3.49537 86.8962 3.49537 86.8962 3.49537H87.1969C87.4975 3.19469 87.4975 3.19469 87.7606 3.19469C87.7606 3.19469 88.0613 3.19469 88.3244 3.19469C88.6251 3.49537 88.8882 3.49537 88.8882 3.49537C88.9633 4.32224 88.6627 5.18669 88.362 5.75047Z" fill="white"/>
<path fill-rule="evenodd" clip-rule="evenodd" d="M98.886 7.17884C98.886 6.61507 99.1867 6.0513 99.4498 5.18684C99.7505 4.05929 100.014 3.49552 100.314 2.89416L100.014 2.59348C99.4498 2.89416 98.886 2.89416 98.3223 2.89416C98.3223 3.45793 98.3223 3.75861 98.0216 4.32239C97.7209 4.88616 97.4578 5.44994 96.894 6.01371C96.5933 6.57749 96.3303 6.87817 96.0296 7.14126C95.7289 7.44194 95.4658 7.70503 95.1651 7.70503H94.8644H94.5638C94.5638 7.70503 94.5638 7.70503 94.5638 7.40436V7.10368C94.8644 6.5399 95.1275 5.97613 95.4282 4.81099C95.7289 4.24722 95.7289 3.68344 95.992 3.38276C95.992 3.38276 95.992 3.08208 95.992 2.81899C95.992 2.81899 95.992 2.51831 95.6913 2.51831C95.6913 2.51831 95.6913 2.51831 95.3906 2.51831C95.0899 2.51831 94.8269 2.51831 94.5262 2.51831C94.2255 2.81899 93.3986 3.08208 92.5342 3.64586V3.94654C93.3986 3.64586 93.6617 3.64586 93.6617 3.64586C93.9624 3.64586 93.9624 3.64586 93.9624 3.64586C93.9624 3.64586 93.9624 3.64586 93.9624 3.94654C93.9624 3.94654 93.9624 4.24722 93.6617 4.51031C93.6617 5.07409 93.361 5.63786 93.0979 6.50232C92.7973 7.06609 92.7973 7.36677 92.7973 7.62986C92.4966 7.62986 92.4966 7.93054 92.4966 8.19364C92.4966 8.19364 92.7973 8.49432 92.7973 8.75741C92.7973 8.75741 93.0979 8.75741 93.361 8.75741C93.6617 8.75741 93.6617 8.75741 93.9248 8.75741C94.4886 8.45673 94.7893 8.45673 95.353 7.89296C95.9168 7.59228 96.4806 7.02851 96.7813 6.76541C97.082 6.46473 97.345 6.20164 97.6457 5.90096L97.0819 7.32919C97.0819 7.62986 97.0819 7.89296 97.0819 8.19364C97.0819 8.19364 96.7813 8.19364 96.7813 8.49432L97.0819 8.795L97.3826 9.09568C97.6833 9.09568 97.6833 9.09568 97.6833 8.795C97.984 8.795 98.2471 8.795 98.5478 8.795C98.5478 8.49432 98.8484 8.49432 99.4122 8.23122L100.277 7.66745L99.976 7.36677C99.4122 7.66745 99.1115 7.93054 99.1115 7.93054C98.8109 7.93054 98.8109 7.93054 98.8109 7.93054H98.5102V7.62986C98.6229 7.74262 98.6229 7.47952 98.886 7.17884Z" fill="white"/>
<path fill-rule="evenodd" clip-rule="evenodd" d="M106.591 3.49545C106.29 3.19477 106.027 3.49545 105.463 3.49545H105.163C104.599 3.79613 104.035 3.79613 103.734 4.05923C103.171 4.35991 102.87 4.623 102.87 4.92368C102.569 4.92368 102.306 5.22436 102.005 5.78813C101.705 6.65259 101.442 7.21636 101.442 7.78014C101.442 8.08082 101.442 8.34391 101.742 8.64459C101.742 8.94527 102.043 9.20836 102.306 9.20836C102.607 9.50904 102.87 9.50905 103.434 9.50905C103.734 9.50905 103.997 9.50905 104.298 9.50905C104.599 9.50905 104.862 9.50904 105.163 9.20836C105.163 9.20836 105.463 9.20836 105.726 9.20836C105.726 9.20836 106.29 8.90769 107.155 8.64459V8.08082C106.591 8.3815 106.027 8.64459 105.463 8.64459H105.163C104.862 8.94527 104.599 8.94527 104.298 8.64459C103.997 8.64459 103.734 8.64459 103.734 8.34391C103.434 8.34391 103.171 8.04323 103.434 7.47946C103.434 7.17878 103.434 6.91568 103.434 6.615C103.997 6.615 104.561 6.615 105.125 6.615C105.426 6.615 105.426 6.615 105.689 6.31432C106.553 6.31432 107.117 6.01364 107.38 5.75055C107.681 5.44987 107.944 4.8861 107.944 4.623C107.944 4.32232 107.944 4.05923 107.643 3.75855C107.418 3.49545 107.155 3.49545 106.591 3.49545ZM106.29 5.18677C105.989 5.48745 105.726 5.75055 105.726 5.75055C105.426 6.05123 105.426 6.05123 105.163 6.05123C104.862 6.05123 104.862 6.35191 104.599 6.35191C104.599 6.35191 104.035 6.35191 103.734 6.35191C103.734 5.78813 104.035 5.22436 104.298 4.92368C104.599 4.35991 104.862 4.35991 105.163 4.05923C105.463 4.05923 105.726 3.75855 105.726 4.05923C106.027 4.05923 106.29 4.05923 106.29 4.05923C106.591 4.35991 106.591 4.35991 106.591 4.623C106.591 4.92368 106.29 5.18677 106.29 5.18677Z" fill="white"/>
<path fill-rule="evenodd" clip-rule="evenodd" d="M123.917 6.05114C123.917 5.48737 123.917 5.18669 123.917 4.92359C123.617 4.35982 123.617 4.05914 123.053 3.79605C122.752 3.49537 122.189 3.49537 121.362 3.23227C121.061 3.23227 120.497 2.93159 119.67 2.93159C119.107 2.63091 118.543 2.63091 118.242 2.63091C117.678 2.33023 116.814 2.06714 115.686 2.06714V2.36782C116.25 2.6685 116.551 2.6685 116.814 2.6685C116.814 2.6685 116.814 2.6685 117.115 2.96918C117.115 2.96918 117.115 2.96918 117.115 3.26986C116.814 3.26986 116.551 4.13431 116.25 5.26186C115.686 6.38941 115.123 7.81764 114.258 9.24586C113.957 9.80964 113.957 10.1103 113.694 10.1103C113.394 10.411 113.131 10.1103 112.567 10.1103L112.266 10.411C113.694 10.7117 114.521 10.9748 114.822 10.9748L117.378 11.5385V11.2379C116.814 10.9372 116.513 10.9372 116.513 10.9372C116.213 10.6365 116.213 10.6365 115.949 10.6365C115.949 10.6365 115.949 10.6365 115.949 10.3358C115.949 10.3358 115.949 10.3358 116.25 10.0351C116.25 9.73447 116.814 8.60692 117.378 6.9156C118.242 5.22428 118.806 4.05914 119.069 3.49537C119.633 3.49537 119.933 3.49537 120.197 3.49537C120.76 3.79605 121.061 3.79605 121.324 4.05914C121.625 4.05914 121.888 4.35982 121.888 4.62292C121.888 4.9236 121.888 5.18669 121.888 5.48737C121.888 6.05114 121.587 6.35182 121.324 6.9156C121.023 7.21628 120.46 7.47937 120.197 7.47937C119.896 7.78005 119.332 7.78005 119.069 7.47937C118.768 7.47937 118.505 7.47937 117.941 7.17869V7.74247C118.505 7.74247 119.069 8.04315 119.37 8.30624C119.933 8.30624 120.497 8.30624 121.061 8.30624C121.625 8.30624 121.925 8.00556 122.489 7.74247C122.79 7.74247 123.053 7.44179 123.354 7.17869C123.617 6.9156 123.917 6.31424 123.917 6.05114Z" fill="white"/>
<path fill-rule="evenodd" clip-rule="evenodd" d="M131.322 8.87002C131.021 8.87002 130.758 8.87002 130.758 8.56934C130.457 8.56934 130.194 8.87002 129.894 8.87002C129.593 8.87002 129.029 8.87002 128.766 9.1707C128.465 9.1707 127.902 9.47138 127.338 9.73448C127.037 9.73448 126.774 10.0352 126.21 10.2983L127.639 7.74248C127.939 7.4418 128.202 6.87802 128.766 6.05115C129.067 5.48738 129.33 5.1867 129.631 4.9236H129.33C129.029 4.9236 128.465 4.9236 127.902 4.62292C127.338 4.62292 126.774 4.62292 126.473 4.62292L126.173 4.9236C126.736 5.22428 127.3 5.22428 127.3 5.22428V5.52496C127.3 5.52496 127.3 5.82564 127.3 6.08874C126.736 6.65251 126.436 7.21629 125.609 8.38142C124.744 9.80965 124.181 10.6741 123.918 11.2379C123.617 11.8017 123.354 12.3654 122.79 12.9292V13.2299C123.091 13.2299 123.354 13.2299 123.918 13.2299C124.218 13.2299 124.481 13.2299 124.481 13.2299C124.481 13.2299 124.782 12.9292 125.045 12.6661C125.346 12.1023 125.609 11.5386 126.173 11.2379C126.473 10.6741 127.037 10.3734 127.601 10.1103C127.902 9.80965 128.465 9.54655 128.728 9.54655C129.029 9.54655 129.292 9.54655 129.292 9.54655L129.593 9.84723C129.593 9.84723 129.593 9.84723 129.593 10.1479C129.593 10.1479 129.029 11.0124 128.165 12.1399C127.601 12.7037 127.3 13.2675 127.3 13.2675C127.3 13.5681 127.3 13.5681 127 13.8312C127 14.1319 127 14.1319 127.3 14.395C127.3 14.395 127.3 14.6957 127.601 14.6957C127.601 14.6957 128.165 14.6957 128.465 14.6957C129.029 14.6957 129.593 14.395 130.72 14.1319L130.42 13.8312C130.119 13.8312 129.555 13.8312 129.555 14.1319C129.255 14.1319 129.255 14.1319 129.255 13.8312C128.954 13.8312 128.954 13.8312 128.954 13.8312C128.954 13.8312 128.954 13.8312 128.954 13.5306C129.255 13.2299 129.518 12.6661 130.382 11.5386C130.946 10.9748 131.247 10.411 131.51 10.1103C131.51 9.80965 131.51 9.80965 131.51 9.54655V9.24587C131.585 8.87002 131.322 8.87002 131.322 8.87002Z" fill="white"/>
<path fill-rule="evenodd" clip-rule="evenodd" d="M139.553 12.0272C139.252 11.7265 138.989 11.7265 138.425 11.4634C137.861 11.1627 137.561 11.1627 136.997 11.1627C136.696 11.1627 136.433 11.1627 136.433 11.1627C136.133 11.1627 135.869 11.1627 135.569 11.1627C135.005 11.4634 134.704 11.4634 134.441 11.4634C134.141 11.7641 133.877 12.0272 133.314 12.5909C133.013 12.8916 132.75 13.4554 132.449 14.0192C132.449 14.3199 132.449 14.583 132.449 14.8836C132.449 15.4474 132.449 15.7481 132.75 16.0112C133.051 16.3119 133.614 16.575 134.178 16.575C134.479 16.8756 135.043 16.8756 135.606 17.1387C135.606 17.1387 136.17 17.1387 136.471 17.1387L136.771 16.838C137.335 16.838 137.899 16.838 138.2 16.5374C138.5 16.5374 138.763 16.2367 139.327 15.6729C139.628 15.3722 139.891 14.8085 140.192 14.2447C140.192 13.944 140.492 13.6809 140.492 13.3802C140.492 13.0796 140.192 12.8165 140.192 12.8165C140.117 12.5909 139.853 12.2903 139.553 12.0272ZM138.425 13.7185C138.125 14.2823 137.861 14.846 137.298 15.4098C136.997 15.7105 136.734 15.9736 136.433 16.2743C136.133 16.2743 135.869 16.575 135.869 16.575C135.569 16.575 135.306 16.575 135.005 16.2743C134.704 16.2743 134.441 15.9736 134.141 15.7105C134.141 15.4098 134.141 15.1467 134.141 14.5829C134.441 14.0192 134.704 13.4554 135.268 12.8916C135.569 12.3279 136.133 12.0272 136.396 11.7641C136.959 11.7641 137.26 11.7641 137.523 11.7641C138.087 12.0648 138.388 12.0648 138.388 12.3279C138.688 12.854 138.688 13.1547 138.425 13.7185Z" fill="white"/>
<path fill-rule="evenodd" clip-rule="evenodd" d="M147.784 15.7106C147.483 15.7106 146.92 15.4099 146.657 15.1468L145.792 14.8461C146.657 13.9817 147.22 13.4179 147.483 13.1548L147.183 12.8541H146.055C146.055 12.8541 145.754 12.5535 145.491 12.5535C145.491 12.8541 145.191 13.1172 144.928 13.681C144.627 13.681 144.364 13.9817 144.364 13.9817C143.499 13.9817 142.936 13.9817 142.673 13.681L142.372 13.9817L143.8 14.8461C143.8 14.8461 143.236 15.4099 142.673 16.2744C141.808 17.4019 141.244 17.9657 141.244 17.9657C141.244 18.2664 140.944 18.5295 140.944 18.5295C140.944 18.8302 140.944 19.0932 140.944 19.0932C140.944 19.3939 141.244 19.657 141.507 19.657C141.507 19.657 141.808 19.657 142.071 19.9577C142.372 19.9577 142.936 19.9577 143.499 19.657C144.364 19.657 144.627 19.657 144.928 19.657V19.0932C144.627 19.3939 144.063 19.3939 143.499 19.3939C143.499 19.3939 143.199 19.3939 142.936 19.0932C142.635 19.0932 142.635 18.7926 142.936 18.7926C142.936 18.7926 142.936 18.7926 142.936 18.4919C142.936 18.4919 143.236 18.1912 143.499 17.9281C144.364 16.8006 144.627 16.2368 144.627 16.2368C145.191 15.9361 145.191 15.3723 145.491 15.3723L146.055 15.673C146.619 15.9737 146.92 16.2368 147.483 16.2368C147.521 16.2744 147.521 16.0113 147.784 15.7106Z" fill="white"/>
<path fill-rule="evenodd" clip-rule="evenodd" d="M154.06 18.8301C153.76 18.5294 153.497 18.2663 152.933 17.9656C152.632 17.6649 152.068 17.6649 151.505 17.6649C151.204 17.3643 150.941 17.3643 150.64 17.3643C150.34 17.3643 150.34 17.3643 150.076 17.3643C149.513 17.6649 149.212 17.6649 148.949 17.6649C148.648 17.9656 148.385 17.9656 147.821 18.5294C147.521 18.8301 147.258 19.3938 146.957 19.9576C146.656 20.2583 146.656 20.5214 146.656 20.8221C146.656 21.1228 146.656 21.6865 146.957 21.9496C147.258 22.2503 147.521 22.5134 148.084 22.8141C148.648 23.1148 148.949 23.1148 149.513 23.3779C149.813 23.3779 150.076 23.3779 150.64 23.3779H150.941C151.242 23.3779 151.805 23.3779 152.068 23.0772C152.369 23.0772 152.933 22.7765 153.196 22.2127C153.76 21.912 154.06 21.3483 154.324 21.0852C154.624 20.7845 154.624 20.5214 154.624 20.2207C154.624 19.92 154.624 19.6569 154.624 19.3563C154.324 19.1308 154.324 19.1308 154.06 18.8301ZM152.632 20.2583C152.332 20.8221 152.068 21.3858 151.505 21.6865C151.204 22.2503 150.941 22.2503 150.64 22.551C150.34 22.8517 150.076 22.8517 149.776 22.8517C149.475 22.8517 149.212 22.8517 148.911 22.551C148.611 22.2503 148.348 22.2503 148.348 21.9872C148.047 21.4234 148.348 21.1228 148.348 20.559C148.648 20.2583 149.212 19.6945 149.776 19.1308C150.076 18.8301 150.34 18.567 150.64 18.2663C150.64 18.2663 150.941 18.2663 150.941 17.9656C151.505 17.9656 151.805 17.9656 152.068 18.2663C152.632 18.567 152.632 18.567 152.933 19.1308C152.933 19.3938 152.933 19.6945 152.632 20.2583Z" fill="white"/>
<path d="M69.3443 85.6563C69.645 85.6563 69.645 85.6563 69.645 85.3556C69.645 85.3556 69.645 85.3556 69.3443 85.3556L68.4799 84.4911L67.6154 85.3556H65.9241V82.236C66.2248 81.9354 66.4879 81.9354 66.4879 81.6723C66.4879 81.6723 66.1872 81.6723 65.9241 81.6723L64.7965 81.3716C64.7965 81.6723 64.7965 81.9354 64.7965 82.236V91.0309C64.2328 91.3316 63.669 91.3316 63.1052 91.5947L63.669 92.7222C63.669 92.7222 63.669 93.0229 63.9697 93.0229C63.9697 93.0229 63.9697 93.0229 63.9697 92.7222L64.2704 92.4216C66.2624 91.5571 67.9537 90.7302 69.6826 90.1289L69.3819 89.8282C68.2544 90.1289 67.0892 90.392 65.9617 90.6927V85.5811H69.3443V85.6563Z" fill="white"/>
<path d="M75.8843 89.0765H75.5836L74.7192 90.7678C74.7192 91.0685 74.7192 91.3316 74.4185 91.3316C74.4185 91.3316 74.1178 91.3316 73.8547 91.3316H71.8627C71.299 91.3316 71.299 91.0309 71.299 90.7678V86.5207C72.9903 85.9569 74.1554 85.3932 74.9823 84.8294C75.5461 84.8294 75.5461 84.8294 75.5461 84.8294C75.5461 84.5287 75.5461 84.5287 75.5461 84.5287L74.4185 83.6643C73.8547 84.228 73.291 84.5287 72.7272 85.0925C72.4265 85.3932 71.8627 85.6563 71.299 85.9569V82.2736L71.5996 81.9729C71.5996 81.9729 71.9003 81.9729 71.9003 81.6723C71.9003 81.6723 71.5996 81.6723 71.3365 81.3716H70.209C70.209 81.3716 70.209 81.6723 70.209 82.236V91.0309C70.209 91.8954 70.7728 92.1585 71.6372 92.1585H74.193C74.7568 92.1585 75.3205 92.1585 75.8843 92.1585C76.185 91.8578 76.185 91.8578 76.185 91.5947V91.294C75.8843 90.9933 75.8843 90.9933 75.8843 90.7302V89.0765Z" fill="white"/>
<path d="M90.0913 85.9192C90.0913 86.2199 90.392 86.483 90.6551 86.483C90.6551 86.483 90.9558 86.483 91.2189 86.1823C91.2189 86.1823 91.2189 86.1823 91.2189 85.8816V85.581H93.5115H95.2029V85.8816C95.2029 86.1823 95.5035 86.1823 95.7666 86.1823H96.0673C96.368 86.1823 96.368 85.8816 96.368 85.8816V84.7541V82.4614L96.6687 82.1607C96.6687 82.1607 96.9694 82.1607 96.9694 81.8601H96.6687L95.8042 80.9956L94.9398 81.8601H93.5115H91.2189L90.0913 81.2963C90.0913 81.2963 90.392 81.597 90.392 82.1607V84.7165L90.0913 85.9192ZM91.2189 82.2359H93.5115H95.2029V83.3635H93.5115H91.2189V82.2359ZM91.2189 83.9272H93.5115H95.2029V85.3555H93.5115H91.2189V83.9272Z" fill="white"/>
<path d="M93.7746 91.3315V89.6402H97.1948C97.1948 89.6402 97.1948 89.6402 97.1948 89.3395C97.1948 89.3395 97.1948 89.3395 97.1948 89.0388L96.0673 88.4751L95.2028 89.3395H93.7746V87.3475H97.7586C98.0593 87.3475 98.0593 87.3475 98.0593 87.0468C98.0593 87.0468 98.0593 87.0468 98.0593 86.7461L96.9317 86.1824L96.0673 87.0468H93.5115H90.3919C89.8282 87.0468 89.2644 87.0468 88.7006 86.7461L89.0013 87.6106C89.302 87.3099 89.8657 87.3099 90.4295 87.3099H92.6846V90.9932C92.3839 90.9932 91.8201 90.6926 91.5571 90.4295C91.2564 90.1288 91.2564 90.1288 90.9933 89.8657C91.294 89.565 91.294 89.3019 91.294 88.7381C91.8577 88.7381 91.8577 88.4375 91.8577 88.4375C91.8577 88.4375 91.8577 88.1368 91.5571 88.1368H90.4295C90.1288 88.7006 90.1288 89.565 89.8657 90.1288C89.5651 90.4295 89.302 90.9932 88.7382 91.557C88.7382 91.557 88.4375 91.557 88.4375 91.8577C88.1368 91.8577 87.5731 92.1584 87.0093 92.7222H87.31C87.8737 92.7222 88.1744 92.4215 88.4375 92.4215C88.7382 92.1208 89.0013 92.1208 89.302 91.8577C89.8657 91.557 90.1664 90.9932 90.4295 90.7301C90.7302 90.4295 90.7302 90.4295 90.7302 90.1664C91.0309 90.4671 91.0309 90.7301 91.294 90.7301C91.5946 91.2939 92.1584 91.5946 92.4215 91.8577C92.7222 91.8577 92.9853 92.1584 93.5491 92.1584C93.8497 92.1584 93.8497 92.1584 94.1128 92.4591C94.9773 92.4591 96.1048 92.7597 97.5331 92.7597C97.5331 92.196 97.8337 91.8953 97.8337 91.8953C97.8337 91.8953 98.1344 91.8953 98.3975 91.8953V91.3315C97.5331 91.3315 96.7062 91.3315 96.1424 91.3315C94.9021 91.3315 94.3383 91.3315 93.7746 91.3315Z" fill="white"/>
<path d="M88.3624 89.3396H88.6631C88.9637 89.0389 89.2268 88.7758 89.5275 88.4751V88.1744C89.2268 88.4751 88.6631 88.4751 88.4 88.7382H88.0993C87.7986 88.7382 87.7986 88.7382 87.5355 88.7382V84.7542H88.4H89.5275C89.5275 84.7542 89.8282 84.7542 89.8282 84.4535C89.8282 84.4535 89.5275 84.4535 89.5275 84.1528L88.6631 83.5891L88.3624 83.8897L87.7986 84.4535H87.5355V82.1608C87.8362 82.1608 88.0993 81.8602 88.0993 81.8602C88.0993 81.5595 88.0993 81.5595 87.7986 81.5595L86.3704 81.2588C86.3704 81.8226 86.3704 81.8226 86.3704 82.1232V84.4159C86.0697 84.4159 85.5059 84.4159 85.2428 84.1152L85.5435 84.679C85.8442 84.679 86.1073 84.679 86.408 84.679V88.9261C85.8442 89.2268 85.2804 89.2268 84.9797 89.2268L85.2804 90.655C85.5811 90.655 85.5811 90.9557 85.5811 90.9557C85.8818 90.9557 85.8818 90.655 85.8818 90.655L86.1825 90.0913C86.4831 90.0913 86.7462 90.0913 87.0469 89.7906C87.5355 89.6402 88.0993 89.6402 88.3624 89.3396Z" fill="white"/>
<path d="M110.838 89.3395H110.537C110.838 88.7757 110.838 88.475 111.101 87.9112C111.402 87.0468 111.665 85.9192 111.966 84.491V84.1903C112.266 84.1903 112.266 83.8896 112.266 83.8896L111.966 83.589L111.402 83.0252L110.537 83.589H109.711C110.011 83.0252 110.011 82.4614 110.274 81.8976L110.575 81.597C110.575 81.597 110.876 81.597 110.876 81.2963C110.876 81.2963 110.575 81.2963 110.312 81.2963L109.748 80.9956H109.184C109.184 81.8601 108.884 82.4238 108.884 82.9876C108.884 83.2883 108.884 83.5514 108.583 83.5514C108.282 83.5514 107.719 83.5514 107.155 83.5514L107.455 84.1152C107.756 84.1152 108.32 84.1152 108.583 84.1152C108.583 84.6789 108.282 85.5434 108.019 86.1072C107.719 86.9716 107.455 88.0992 107.155 88.9636C107.155 88.9636 107.155 88.9636 107.155 89.2643C107.155 89.2643 107.455 89.2643 107.719 89.2643C107.719 89.2643 107.719 89.2643 108.019 89.2643C108.019 89.2643 108.019 89.2643 108.32 88.9636V88.7757C108.621 89.0764 109.184 89.3395 109.447 89.6401C109.147 90.2039 108.884 90.5046 108.32 91.0684C108.019 91.6322 107.455 91.9328 107.192 92.4966L107.493 92.7973C108.057 92.2335 108.621 91.9328 108.921 91.3691C109.222 91.0684 109.485 90.8053 109.786 90.5046C109.786 90.5046 109.786 90.2039 110.086 90.2039C110.387 90.2039 110.387 90.5046 110.65 90.7677C110.951 91.0684 111.214 91.0684 111.515 91.0684C111.815 91.0684 112.078 91.0684 112.078 90.5046C111.966 90.2039 111.402 89.9032 110.838 89.3395ZM110.274 87.6481C109.974 87.9488 109.974 88.5126 109.711 88.7757C109.41 88.7757 108.846 88.475 108.583 88.2119C108.884 87.6481 108.884 86.7837 109.147 85.9192C109.447 85.3555 109.447 85.0548 109.711 84.491V84.1903H110.838C110.575 85.6561 110.274 86.7837 110.274 87.6481Z" fill="white"/>
<path d="M120.497 84.2279C120.497 84.2279 120.497 84.2279 120.197 84.2279L119.332 83.3635L118.468 84.2279H117.04C116.739 84.2279 116.739 83.9272 116.739 83.9272C116.739 83.6266 116.739 83.0628 116.739 82.499C117.303 82.499 118.167 82.1983 118.731 82.1983H119.295C119.295 82.1983 119.295 82.1983 119.295 81.8977C119.295 81.8977 119.295 81.8977 119.295 81.597L118.167 81.0332C117.603 81.3339 117.04 81.597 116.175 81.8977H115.875C115.574 82.1983 115.311 82.1983 114.747 82.1983C114.446 82.1983 114.183 82.1983 113.619 82.499L112.755 81.9352C112.755 82.2359 112.755 82.499 112.755 82.7997V86.483C112.454 86.483 112.191 86.7837 111.891 86.7837H111.59L111.891 87.6482L112.191 87.9488C112.191 88.2495 112.191 88.2495 112.492 88.2495C112.492 88.2495 112.492 88.2495 112.492 87.9488L112.793 87.6482C113.356 87.3475 114.221 87.0844 114.785 86.7837C115.348 86.7837 115.912 86.483 116.213 86.483L116.513 86.1823V85.8817H116.213C115.912 86.1823 115.348 86.1823 114.785 86.1823C114.484 86.483 114.221 86.483 113.92 86.483V84.491H114.785H115.912C116.213 84.7917 116.213 85.0548 116.213 85.0548C116.513 85.3555 116.513 85.3555 116.513 85.3555C116.814 85.9192 117.077 86.2199 117.641 86.7837C117.942 87.0844 118.505 87.3475 119.069 87.3475C119.37 87.6482 119.633 87.6482 119.934 87.6482C120.234 87.6482 120.497 87.6482 120.497 87.3475C120.497 87.0468 120.497 87.0468 120.197 86.7837V86.5206C120.197 86.5206 120.197 85.9568 120.197 85.3931L119.332 86.2575C119.032 86.2575 119.032 86.2575 119.032 86.2575C118.731 86.2575 118.167 85.9568 118.167 85.6937C117.603 85.6937 117.603 85.3931 117.303 85.13C117.303 84.8293 117.002 84.8293 117.002 84.5662H120.122C120.497 84.5286 120.497 84.5286 120.497 84.2279ZM114.822 84.2279H113.958V82.7997C114.258 82.7997 114.521 82.7997 114.822 82.7997C115.123 82.499 115.386 82.499 115.687 82.499C115.687 83.0628 115.987 83.6266 115.987 84.1903H114.822V84.2279Z" fill="white"/>
<path d="M118.506 87.6482L117.942 88.212H116.25H114.822H114.258L113.131 87.6482C113.131 87.6482 113.131 87.9489 113.131 88.5126V91.3691V92.4967C113.131 92.7973 113.131 92.7973 113.432 92.7973C113.732 92.7973 113.732 92.7973 113.995 92.7973C114.296 92.7973 114.296 92.4967 114.296 92.4967V92.196H114.86H116.288H117.979V92.4967C117.979 92.7973 118.28 92.7973 118.543 92.7973C118.844 92.7973 119.107 92.7973 119.107 92.7973C119.107 92.4967 119.408 92.4967 119.408 92.4967L119.107 91.3691V88.7757L119.671 88.4751C119.671 88.4751 119.671 88.4751 119.671 88.1744C119.671 88.1744 119.671 88.1744 119.37 88.1744L118.506 87.6482ZM117.942 91.8953H116.25H114.822H114.258V90.204H114.822H116.25H117.942V91.8953ZM117.942 89.9033H116.25H114.822H114.258V88.4751H114.822H116.25H117.942V89.9033Z" fill="white"/>
<path d="M140.117 83.6642L139.816 83.9649C140.681 84.5286 141.244 85.3931 141.507 85.9569C141.808 86.2575 141.808 86.2576 142.071 86.2576C142.372 86.2576 142.635 86.2576 142.635 85.6938C142.635 85.3931 142.334 85.13 142.071 84.8293C141.545 84.5286 140.981 83.9273 140.117 83.6642Z" fill="white"/>
<path d="M135.87 87.6483C136.734 87.9489 137.298 87.9489 137.298 87.9489C137.298 88.2496 137.298 88.5127 137.298 88.8134C137.599 88.8134 138.162 88.5127 138.425 88.5127C138.726 88.212 138.989 87.9489 138.989 87.3852V82.2736L139.29 81.9729C139.591 81.9729 139.591 81.9729 139.591 81.6723C139.591 81.6723 139.591 81.3716 139.29 81.3716H137.862C137.862 81.6723 137.862 82.236 137.862 83.0629V87.0469C137.862 87.3476 137.862 87.6107 137.561 87.6107L135.87 87.31V87.6483Z" fill="white"/>
<path d="M130.758 85.0925C130.758 85.3932 130.758 85.3932 131.059 85.3932C131.36 85.3932 131.623 85.0925 131.623 84.8294C131.623 84.5287 131.322 84.2656 131.059 83.965C130.758 83.965 130.758 83.965 130.758 83.6643C131.322 83.1005 131.623 82.5367 131.886 82.2361C132.45 81.9354 132.75 81.9354 132.75 81.9354C132.75 81.6347 132.45 81.6347 132.45 81.6347L131.021 81.0709C131.021 81.6347 130.721 81.9354 130.721 82.4992C130.42 82.7998 130.42 83.0629 130.157 83.3636V83.6643C130.157 83.3636 129.856 83.3636 129.593 83.1005L129.292 83.4012C129.593 83.7019 129.856 84.2656 130.157 84.5287C130.458 84.7918 130.458 84.7918 130.758 85.0925Z" fill="white"/>
<path d="M134.705 87.0844C135.269 86.7838 135.569 86.5207 135.832 85.9569C136.133 85.3931 136.396 85.0924 136.697 84.2656C137.261 84.2656 137.261 84.2656 137.261 84.2656C137.261 83.9649 137.261 83.9649 136.96 83.9649L135.832 83.4011C135.532 84.2656 135.269 84.8294 135.269 85.3931C134.968 85.9569 134.705 86.5207 134.404 87.0844H134.705Z" fill="white"/>
<path d="M133.878 90.7678C133.878 91.0684 133.878 91.3315 134.179 91.3315C134.479 91.3315 134.743 91.0309 134.743 90.4671C134.743 90.1664 134.743 89.9033 134.442 89.6026L134.141 89.3019C133.841 89.0013 133.841 89.0013 133.841 88.7382C133.54 88.7382 133.54 88.7382 133.277 88.4375L133.014 88.7758C133.314 89.3395 133.577 89.9033 133.878 90.4671V90.7678Z" fill="white"/>
<path d="M131.021 88.7758L130.157 88.4751H129.856C129.856 89.0389 129.856 89.3396 129.555 89.9033C129.555 90.4671 129.255 91.0309 128.992 91.8953H129.555C129.856 91.5947 129.856 91.3316 130.119 90.7678C130.42 90.204 130.683 89.6402 130.683 89.0765C130.984 89.0765 131.247 89.0765 131.247 89.0765C131.322 88.7758 131.322 88.7758 131.021 88.7758Z" fill="white"/>
<path d="M133.577 87.3476C133.577 87.6483 133.577 87.9114 133.878 87.9114H134.178C134.479 87.9114 134.479 87.6107 134.479 87.3476C134.479 87.0469 134.479 86.7838 134.178 86.4831C133.878 86.1824 133.878 86.1824 133.878 85.9194C133.577 85.9194 133.314 85.6187 133.013 85.3556V85.6563C133.013 85.9569 133.013 86.22 133.314 86.5207C132.449 86.5207 131.622 86.8214 131.059 86.8214C132.186 85.6938 133.051 84.5287 133.915 83.7018C133.915 83.7018 133.915 83.7018 134.216 83.7018C134.216 83.7018 134.517 83.7018 134.517 83.4012H134.141L133.84 83.1005L132.976 82.7998C132.412 83.3636 132.111 84.228 131.547 85.0925C131.247 85.3932 130.984 86.22 130.42 86.7838H130.119C129.818 86.7838 129.555 86.7838 129.255 86.7838L129.555 87.9114C129.555 88.212 129.555 88.212 129.856 88.212L130.157 87.9114C130.72 87.6107 131.021 87.6107 131.284 87.3476V89.0389V91.3316V92.7598L131.585 93.0605C131.886 93.0605 132.149 92.7598 132.149 92.7598C132.449 92.7598 132.449 92.7598 132.449 92.4591V87.0469C132.75 87.0469 133.013 86.7462 133.314 86.7462C133.314 87.0845 133.577 87.0845 133.577 87.3476Z" fill="white"/>
<path d="M139.29 88.475C138.989 89.0388 138.726 89.6025 138.162 89.9032C137.599 90.467 137.035 91.0308 136.471 91.3315C136.17 91.3315 136.17 91.3315 135.907 91.3315C135.607 91.6321 134.78 91.8952 134.216 92.1959H133.915V92.4966H134.216C134.78 92.1959 135.644 92.1959 135.907 91.9328C136.208 91.9328 136.208 91.9328 136.471 91.9328C137.035 91.6321 137.599 91.369 138.162 91.0684C138.726 90.5046 139.29 90.2039 139.854 89.6401C140.417 89.0764 140.718 88.5126 141.282 87.6481C141.846 87.6481 141.846 87.6481 141.846 87.3474C141.846 87.3474 141.846 87.3474 141.846 87.0468L140.417 86.7461C140.117 87.3475 139.854 87.9112 139.29 88.475Z" fill="white"/>
<path d="M155.188 85.9192C154.888 86.2199 154.324 86.483 154.061 86.7837V84.491H155.489H155.79C156.09 84.1903 156.09 84.1903 156.09 84.1903C156.09 84.1903 156.09 84.1903 155.79 84.1903V83.8896L155.489 83.589L154.925 83.2883L154.061 84.1527V81.8601H154.361V81.5594C154.361 81.2587 154.361 81.2587 154.061 81.2587L152.633 80.958C152.933 81.5218 152.933 81.8225 152.933 82.6493V84.0776C152.369 84.0776 152.069 83.7769 151.505 83.7769L151.806 84.3407C152.106 84.3407 152.67 84.3407 152.933 84.3407V86.8964C152.369 87.1971 151.806 87.4602 151.242 87.7609L151.806 88.8884H152.106H152.407V88.3247C152.708 88.3247 152.708 88.3247 152.971 88.024V91.1435C152.971 91.4442 152.971 91.4442 152.67 91.4442H151.543V91.7449C152.106 91.7449 152.407 92.0456 152.407 92.0456C152.407 92.3462 152.407 92.3462 152.407 92.91C152.708 92.91 152.971 92.6093 153.535 92.6093C153.835 92.3087 154.098 92.0456 154.098 91.4818V87.2347C154.399 86.934 154.963 86.6709 155.527 86.1071L155.188 85.9192Z" fill="white"/>
<path d="M163.156 90.204V87.0844H164.021H164.322C164.322 86.7838 164.322 86.7838 164.021 86.7838L163.156 85.9193L162.292 86.7838H161.428H159.736L159.435 86.4831L158.571 85.9193L158.007 86.7838H157.143H156.842C156.541 86.7838 156.278 86.7838 155.715 86.7838H155.414L155.188 86.5207L155.489 87.3851V91.0685C155.188 91.0685 155.188 91.0685 154.925 91.0685L155.226 92.196H155.527C155.527 92.196 155.527 92.196 155.827 92.196V91.8953C156.128 91.8953 156.391 91.5946 156.692 91.5946C156.992 91.5946 156.992 91.5946 157.256 91.294C157.556 91.294 157.556 91.294 157.819 91.294V92.7222C157.819 92.7222 158.12 93.0229 158.383 93.0229L158.684 92.7222C158.984 92.7222 158.984 92.7222 158.984 92.4215V90.9933V87.0093H159.548H159.849V90.9933H159.548H158.984L159.285 91.5571L159.586 91.2564H159.887H161.578L162.442 90.9557V91.2564L162.142 92.6846C162.142 92.6846 162.442 92.9853 162.705 92.9853L163.006 92.6846C163.307 92.6846 163.307 92.6846 163.307 92.3839V90.9557H164.434C164.434 90.9557 164.735 90.9557 164.735 90.655H164.434L163.156 90.204ZM157.744 90.7678C157.744 90.7678 157.443 90.7678 157.18 90.7678C156.88 90.7678 156.617 90.7678 156.617 90.7678V89.9033H157.18H157.744V90.7678ZM157.744 89.6402H157.18H156.617V88.5127H157.18H157.744V89.6402ZM157.744 88.212H157.18H156.617V87.0844H156.917H157.218H157.782V88.212H157.744ZM162.292 90.7678H161.428L160.563 91.0685V89.9409H161.428H162.292V90.7678ZM162.292 89.6402H161.428H160.563V88.5127H161.428H162.292V89.6402ZM162.292 88.212H161.428H160.563V87.0844H161.428H162.292V88.212Z" fill="white"/>
<path d="M156.88 82.2359V85.3555H155.752L156.053 85.9192L156.918 85.6186H157.218H159.473H160.902V86.1823C160.902 86.1823 160.902 86.483 161.202 86.483H161.503C161.503 86.483 161.804 86.483 161.804 86.1823C162.104 86.1823 162.104 86.1823 162.104 85.8816V85.3179H164.096C164.096 85.3179 164.397 85.3179 164.397 85.0172H164.096L162.969 84.4534L162.405 85.0172H162.104V82.1607H163.796C164.096 82.1607 164.096 82.1607 164.096 81.8601C164.096 81.8601 164.096 81.5594 163.796 81.5594L162.931 80.9956L162.067 81.8601H161.503H159.511H157.82C157.519 81.8601 157.519 81.8601 157.256 81.5594C156.955 81.5594 156.391 81.5594 155.828 81.5594L156.128 82.1232C156.316 82.2359 156.617 82.2359 156.88 82.2359ZM158.045 82.2359H159.473H160.902V83.1004H159.473H158.045V82.2359ZM158.045 83.3635H159.473H160.902V84.2279H159.473H158.045V83.3635ZM158.045 84.5286H159.473H160.902V84.8293V85.13L159.473 85.4306H158.045V84.5286Z" fill="white"/>
<path d="M186.459 88.2119L185.332 87.9113C184.467 89.0388 183.64 89.9033 182.475 90.7677C182.175 91.0684 181.611 91.3315 181.047 91.6322L180.483 91.9328C180.183 92.2335 179.919 92.2335 179.619 92.4966H179.318V92.7973H179.619C179.919 92.7973 180.183 92.4966 180.483 92.4966L181.047 92.1959C181.911 91.8953 182.475 91.6322 183.34 91.3315C184.467 90.467 185.332 89.6402 186.196 88.7757C186.76 88.7757 186.76 88.475 186.76 88.475C186.76 88.475 186.76 88.2119 186.459 88.2119Z" fill="white"/>
<path d="M180.483 84.7916H180.784H181.085C181.949 84.491 182.776 84.2279 183.377 83.9272C184.242 83.3634 184.806 83.0627 185.369 82.499C185.67 82.1983 185.933 82.1983 185.933 82.1983C185.933 81.8976 185.633 81.8976 185.633 81.8976L184.204 81.5969C183.904 82.1607 183.34 83.0252 182.513 83.2882C182.212 83.852 181.649 84.1527 181.085 84.4158C180.784 84.4158 180.784 84.4158 180.521 84.4158V84.7916H180.483Z" fill="white"/>
<path d="M184.768 84.7917C184.204 85.6562 183.64 86.22 182.776 86.7838C182.212 87.3475 181.648 87.6482 181.085 87.9113L180.521 88.212L180.821 88.5127L181.122 88.212C181.987 87.9113 182.813 87.6482 183.678 87.3475C184.542 86.7838 185.106 86.22 185.971 85.3555C186.271 85.3555 186.271 85.3555 186.271 85.0548C186.271 85.0548 186.271 85.0548 185.971 85.0548L184.768 84.7917Z" fill="white"/>
<path d="M179.656 91.3314C179.656 91.6321 179.656 91.6321 179.957 91.6321C180.257 91.6321 180.521 91.3314 180.521 91.0683C180.521 90.7677 180.22 90.7677 179.957 90.5046L179.656 90.2039L178.792 89.9032L178.491 90.2039C179.055 90.5046 179.355 90.7677 179.355 91.3314H179.656Z" fill="white"/>
<path d="M174.244 90.7678C173.943 91.0685 173.68 91.3316 173.38 91.6322V91.9329C173.943 91.9329 174.244 91.6322 174.507 91.6322C174.808 91.3316 175.071 91.3316 175.372 91.0685C175.372 90.7678 175.672 90.7678 175.672 90.7678C176.236 90.4671 176.236 90.4671 176.236 90.4671C176.236 90.1664 176.236 90.1664 175.935 90.1664L175.372 89.8657L175.071 89.5651C174.808 90.204 174.507 90.4671 174.244 90.7678Z" fill="white"/>
<path d="M179.093 89.6401C179.093 89.6401 179.093 89.6401 179.656 89.6401H179.957C179.957 89.3394 180.258 89.3394 180.258 89.3394C180.258 89.3394 180.258 89.0388 179.957 88.7757V87.9112L180.258 87.6105C180.558 87.6105 180.558 87.6105 180.558 87.6105V87.3099L179.694 86.7461L179.13 87.3099H177.364H175.372V87.0092L174.244 86.7085C174.244 87.0092 174.244 87.2723 174.244 87.573V88.4374C174.244 89.0012 174.244 89.3019 174.244 89.3019C174.244 89.6025 174.545 89.6025 174.808 89.6025C175.109 89.6025 175.109 89.6025 175.109 89.6025C175.409 89.3019 175.409 89.3019 175.409 89.3019V89.0012H176.838V91.2939C176.838 91.5945 176.837 91.5945 176.537 91.5945H175.409H175.109V91.8952H175.409C175.973 92.1959 176.274 92.1959 176.274 92.1959C176.274 92.4966 176.574 92.4966 176.574 93.0604C176.574 93.0604 176.875 92.7597 177.439 92.7597C177.74 92.459 178.003 92.1959 178.003 91.6321V89.0763H179.13V89.6401H179.093ZM177.364 88.7757H175.372V87.6481H177.364H179.055V88.7757H177.364Z" fill="white"/>
<path d="M174.507 83.9272V85.0548C174.507 85.3554 174.507 85.3554 174.808 85.3554C174.808 85.3554 175.108 85.3554 175.371 85.3554C175.371 85.0548 175.672 85.0548 175.672 85.0548V84.7541H177.363H179.055V85.0548C179.055 85.0548 179.355 85.3554 179.619 85.3554C179.919 85.3554 179.919 85.0548 180.182 85.0548C180.182 85.0548 180.182 85.0548 180.182 84.7541V83.8896V82.1983H180.483V81.8976V81.5969L179.619 81.2963L179.055 81.5969H177.363H175.672H175.371L174.357 81.3338C174.507 81.409 174.507 81.6345 174.507 81.86V83.9272ZM175.672 82.2359H177.363H179.055V83.1003H177.363H175.672V82.2359ZM175.672 83.3634H177.363H179.055V84.491H177.363H175.672V83.3634Z" fill="white"/>
<path d="M175.109 86.5206H175.409H177.401H179.694H180.558H181.122H181.423V86.2199V85.9192L181.122 85.6186L180.558 85.3179H180.258L179.694 85.8817H179.393H177.965V85.581H178.266V85.2803C178.266 85.2803 178.266 84.9796 177.965 84.9796H177.364H176.8C176.8 85.2803 176.8 85.2803 176.8 85.5434V85.8441H175.372H175.109C174.545 85.8441 173.981 85.8441 173.417 85.8441L173.718 86.4078C173.943 86.5206 174.507 86.5206 175.109 86.5206Z" fill="white"/>
</svg>
