<svg width="130" height="64" viewBox="0 0 130 64" fill="none" xmlns="http://www.w3.org/2000/svg">
<path fill-rule="evenodd" clip-rule="evenodd" d="M110.061 30.7593C111.044 30.9661 111.819 30.9661 112.414 31.147C113.189 30.9402 113.783 30.9402 114.171 30.9402L114.766 28.7948C112.414 28.7948 111.044 27.4249 110.268 24.685L106.753 27.2181C107.502 29.1826 108.691 30.3457 110.061 30.7593Z" fill="#A7161C"/>
<path fill-rule="evenodd" clip-rule="evenodd" d="M128.62 45.4152C127.25 46.1907 125.493 46.5784 123.347 46.7852C121.796 46.5784 120.814 46.0097 120.607 45.0275C121.383 44.8207 122.184 44.2521 123.347 43.2698L123.735 42.8821C127.069 39.9613 128.62 37.6091 128.62 35.6446C128.62 34.4815 128.026 33.887 126.863 33.887C125.88 33.887 124.717 34.2747 123.347 35.4637C123.141 35.4637 123.141 35.6705 122.96 35.8514C121.409 37.0146 120.039 38.5913 118.85 40.349C118.54 40.8142 118.255 41.2795 118.023 41.7189L110.242 47.1987C110.036 46.9919 110.036 46.9919 110.036 46.811C110.036 46.2165 110.242 45.0533 110.811 43.2957C112.181 39.1858 113.551 36.265 115.309 34.895L114.145 33.9128C113.37 34.6882 111.793 35.6705 109.26 37.2472L109.855 38.4104C109.467 38.9532 109.053 39.832 108.588 41.021L94.6042 47.4055C94.3974 47.4055 94.2165 47.0178 94.0097 46.0356C94.0097 44.8724 94.3974 43.2957 94.7851 41.538C95.3796 39.7803 95.9483 38.4104 96.5428 37.2472L100.265 36.8595C102.229 36.6527 103.393 36.4718 103.78 36.265V34.1196C103.574 34.1196 103.393 34.1196 103.005 34.3264C100.859 34.1196 99.6704 33.9387 99.4895 33.7319C99.1018 33.5251 98.7141 32.9564 98.7141 32.3619C98.7141 31.1988 99.4895 29.622 101.066 27.8643C101.066 27.6576 100.859 27.6576 100.679 27.6576C98.9208 27.6576 97.1632 29.622 95.5864 33.5251C94.4233 34.1196 93.622 34.3005 93.622 34.5073C93.2342 34.7141 93.2343 34.895 93.0275 35.1018C93.4152 35.6963 93.8029 36.265 94.0097 36.8595L93.0275 39.832L78.9661 47.4314C78.7593 47.2246 78.5784 46.8369 78.3716 46.0614C78.3716 44.8983 78.7593 43.3215 79.147 41.5638C79.7415 39.5994 80.3102 38.2294 80.9047 37.2731L84.6268 36.6786C86.5913 36.4718 87.7544 36.2908 88.1422 36.2908V34.1454C87.9354 34.1454 87.7545 34.1454 87.3667 34.1454C85.2213 33.9386 84.0323 33.7577 83.8514 33.7577C83.4637 33.37 83.0759 32.9823 83.0759 32.181C83.0759 31.0178 83.8514 29.6479 85.4281 27.8902C85.4281 27.6834 85.2213 27.5025 85.0404 27.5025C83.2827 27.5025 81.706 29.4669 79.9483 33.37C78.7851 33.9645 77.9838 34.3522 77.9838 34.3522C77.5961 34.559 77.5961 34.7399 77.5961 35.1277C77.8029 35.7222 78.1906 36.2908 78.3716 36.6786L76.6139 42.1583C76.4588 42.727 76.3296 43.2698 76.2262 43.7868L73.6931 46.475L72.1422 47.6382C71.5477 48.2327 70.979 48.6204 70.5654 48.6204C70.3587 48.0259 70.1777 47.6382 70.1777 47.6382C70.1777 46.475 70.5654 44.7173 71.1599 42.5461C71.7544 40.4007 72.3231 38.643 72.9176 37.454C73.1244 37.0663 73.1244 36.6786 73.1244 36.6786C73.1244 36.084 72.9176 35.6963 72.349 35.6963C71.7544 35.6963 71.1858 35.9031 70.5913 36.2908L72.7367 34.7141C72.1422 34.1196 71.3667 33.9387 69.9968 33.9387H69.609C67.8514 34.3264 66.0937 35.3086 64.336 36.4718C64.1292 36.8595 63.7415 37.0663 63.3538 37.2472C61.3893 39.0049 59.8385 40.9693 58.6494 43.1147C58.6236 43.1664 58.5719 43.244 58.546 43.2957L53.9451 45.4669C52.5751 46.2424 50.8175 46.6301 48.6721 46.8369C47.0953 46.6301 46.1389 46.0614 45.9322 45.0792C46.7076 44.8724 47.483 44.3037 48.6721 43.3215L49.0598 42.9338C52.3942 40.013 53.9451 37.6608 53.9451 35.6963C53.9451 34.5332 53.3506 33.9387 52.1874 33.9387C51.2052 33.9387 50.042 34.3264 48.6721 35.5154C48.4653 35.5154 48.4653 35.7222 48.2843 35.9031C46.7334 37.0663 45.3635 38.643 44.1745 40.4007C43.399 41.5638 42.8821 42.6495 42.6236 43.6575C42.1583 43.3991 41.6414 43.1664 41.0468 42.9338C39.0824 42.3393 36.937 41.7706 34.1971 41.7706L30.0872 41.5638L25.2019 41.3571C21.2989 41.1503 19.3344 40.9693 19.3344 40.5816H19.1276C19.3344 40.1939 20.4976 39.4185 22.8498 38.0485L30.0872 34.3264L32.0517 33.3441C40.4523 28.8466 44.5622 25.5122 44.5622 22.979C44.3554 22.2036 42.8045 21.4023 40.0646 21.0146C37.5315 20.4201 34.5848 20.0324 31.2763 20.0324C30.8885 20.0324 30.5008 20.0324 30.1131 20.0324C29.1309 20.2391 27.9677 20.2391 26.7787 20.4201C26.391 19.0501 26.0032 18.4556 25.2019 18.4556C24.6074 18.4556 23.4443 19.2311 21.6866 20.601L16.8013 20.9887C12.5105 20.782 9.95154 20.3942 9.17609 19.412C7.03069 21.5574 6.04847 22.9274 5.84168 23.7028C6.04847 23.9096 6.04847 23.9096 6.04847 23.9096V24.0905C6.43619 24.685 7.59935 25.0727 9.56381 25.2537C10.3393 25.2537 12.0969 25.0469 14.8368 24.6592C17.37 24.4524 18.9467 24.2715 19.3344 24.2715C18.3522 25.8482 17.37 28.3813 16.2068 31.8966C15.2246 35.412 14.6559 38.1519 14.6559 39.9096C13.8805 40.2973 13.0792 40.685 12.5105 41.2795C11.7351 41.874 11.5283 42.2617 11.5283 42.6495C11.5283 43.4249 12.3037 44.0194 14.0614 44.2262C13.8546 46.7593 13.2859 51.076 12.0969 56.9435L15.4313 55.9612C15.4313 55.5735 15.6381 54.3845 15.8191 52.4459C16.5945 47.7415 16.9822 45.2084 17.3958 44.6139C17.7835 44.6139 18.1712 44.6139 18.1712 44.6139C18.378 44.6139 18.9467 44.6139 20.1357 44.2262C22.4879 43.8385 25.7964 43.4508 30.1131 43.4508C30.7076 43.4508 31.483 43.4508 32.0775 43.4508C35.412 43.4508 37.9451 43.6575 40.0905 44.2262C41.0985 44.4847 41.874 44.7949 42.4427 45.1567C42.4685 46.2941 42.6494 47.1987 43.0372 47.9225C42.21 48.8272 40.4265 49.8611 37.7383 51.076C35.3861 52.2391 32.853 53.2213 30.1131 54.2036C28.1486 54.7981 26.21 55.3667 24.2456 55.9612C18.9725 57.3312 14.6559 57.9257 11.1406 57.9257C9.38288 57.9257 7.80614 57.7189 7.03069 57.3312C7.03069 56.5558 7.41842 55.7545 8.40065 54.7981C9.17609 54.0226 9.97738 53.4281 10.9338 53.0404V51.2827C10.9338 51.076 10.727 51.076 10.3393 51.076C9.74475 51.076 8.58158 51.6705 6.82391 52.8336C5.06624 54.2036 3.4895 55.5735 2.1454 56.9435C0.568659 58.3134 0 59.2957 0 59.6834C0.206785 61.2601 2.35218 62.0356 6.25525 62.0356C10.1583 62.0356 15.4572 61.0533 21.8934 59.1147C24.8142 58.3393 27.5541 57.538 30.1131 56.5816C33.2407 55.4184 35.9806 54.2294 38.3328 53.0663C40.9176 51.5929 42.8045 50.2488 43.9418 49.0598C44.6914 49.6543 45.6995 49.9386 46.9402 49.9386C47.3279 49.9386 47.9225 49.7318 48.6979 49.5509C51.1793 48.853 54.7981 47.0178 57.7448 44.8983C57.021 46.5525 56.7108 48.1034 56.7108 49.5509L59.2439 49.3441C60.2262 47.9742 61.9838 46.2165 64.336 43.6834C65.706 42.3134 67.2569 40.9435 69.0404 39.1858C68.6527 40.168 68.2649 41.7189 67.6704 44.0711C67.2827 46.6042 66.895 48.5687 66.895 49.7318C66.895 50.7141 67.1018 51.3086 67.4895 51.3086C68.6527 51.3086 70.0226 50.9209 71.3926 49.9386C72.4007 49.3441 74.727 46.1648 76.1745 44.1745C75.8643 45.5445 75.6317 46.7076 75.5024 47.7932C75.7092 49.37 76.0969 50.1454 77.0533 50.1454C77.8288 50.1454 79.4055 49.5509 81.5509 48.3877C83.1018 47.5348 90.1325 42.4168 92.9758 40.1422L92.3037 42.1325C91.7092 44.4847 91.3215 46.4233 91.1406 47.7932C91.3473 49.37 91.7351 50.1454 92.7173 50.1454C93.4927 50.1454 95.0695 49.5509 97.2149 48.3877C98.9725 47.4314 105.176 43.8643 108.433 41.6155C108.278 42.0291 108.123 42.4427 107.968 42.9079C107.192 45.4411 106.805 47.1987 106.805 48.3877C107.011 49.37 107.58 49.9645 108.381 49.9645C109.157 49.9645 110.139 49.5768 111.121 48.8013C111.897 48.2068 112.879 47.4314 113.654 46.4491C114.249 45.9839 116.265 44.0194 117.764 42.5202C117.376 43.4249 117.17 44.2779 117.17 45.0792C117.17 48.4136 118.721 49.9645 121.667 49.9645C122.262 49.9645 122.83 49.9645 123.425 49.7577C125.57 49.37 127.535 48.181 129.292 46.2424L128.62 45.4152ZM21.6866 30.3458C23.0565 27.0114 24.0388 24.866 24.8142 23.7028C25.7964 23.496 27.5541 23.3151 30.0872 23.3151C30.6817 23.3151 31.0695 23.3151 31.6381 23.3151C38.1002 23.3151 41.4087 23.9096 41.4087 25.2795C41.4087 25.874 37.6866 28.2004 30.0614 32.1293C26.9338 33.887 23.2116 35.6446 18.7141 37.79C18.9467 36.4201 19.9289 34.0679 21.6866 30.3458ZM47.0953 38.7722C47.483 37.9968 48.0775 37.4023 48.6721 37.0146C49.2666 36.6269 50.042 36.2391 50.8174 36.2391C51.412 36.2391 51.5929 36.6269 51.5929 37.0146C51.5929 37.6091 51.2052 38.3845 50.6107 39.5477C50.0162 40.5299 49.2407 41.3054 48.6462 41.8999C47.664 43.063 46.6817 43.8643 45.7254 44.0453C45.7254 42.0808 46.3199 40.3231 47.0953 38.7722ZM66.2488 39.7545L64.2843 41.7189C62.1389 44.0711 60.5622 45.622 60.1745 46.2165C60.3813 43.8643 61.1567 41.7189 62.7076 40.349C63.0953 39.7545 63.6898 39.1858 64.2843 38.7722C65.6543 37.9968 67.0242 37.6091 68.5751 37.4023C68.3942 37.5832 67.6187 38.3845 66.2488 39.7545ZM121.796 38.7722C122.184 37.9968 122.779 37.4023 123.347 37.0146C123.942 36.6269 124.717 36.2391 125.493 36.2391C126.087 36.2391 126.268 36.6269 126.268 37.0146C126.268 37.6091 125.88 38.3845 125.286 39.5477C124.691 40.5299 123.916 41.3054 123.321 41.8999C122.339 43.063 121.357 43.8643 120.401 44.0453C120.426 42.0808 120.995 40.3231 121.796 38.7722Z" fill="#A7161C"/>
<path d="M30.475 17.8352C30.475 17.8352 64.6979 -1.91274 106.132 22.3328" stroke="#A7161C" stroke-width="0.81"/>
<path fill-rule="evenodd" clip-rule="evenodd" d="M35.3603 8.65915C35.1535 8.65915 34.9726 8.45236 34.5848 8.65915C34.3781 8.65915 33.9903 8.65915 33.6026 8.86593C33.9903 8.47821 34.1971 8.47821 34.1971 8.27143C34.4039 8.06464 34.5848 7.88371 34.7916 7.67692C34.7916 7.47014 34.9984 7.2892 34.9984 7.08241C34.9984 6.87563 34.9984 6.48791 34.7916 6.30697C34.7916 6.10019 34.5848 5.91925 34.4039 5.91925C34.0162 5.71246 33.8094 5.71246 33.4217 5.71246C33.2149 5.91925 32.8272 5.91925 32.4395 6.10019H32.2327C32.0259 6.30697 31.8449 6.48791 31.4572 6.48791C30.8627 6.87563 30.6818 7.08241 30.475 7.08241L29.105 7.67692V7.88371H29.3118C29.5186 7.88371 29.6996 7.67692 29.9063 7.67692C29.9063 7.67692 29.9063 7.67692 30.1131 7.67692C30.1131 7.67692 30.1131 7.67692 30.1131 7.88371C30.1131 7.88371 30.3199 8.27143 30.5008 9.04687C30.7076 10.0291 30.8886 10.8045 31.0954 11.58C31.0954 12.3554 31.3021 12.7432 31.3021 12.9499C31.0953 13.1567 31.0954 13.1567 30.7076 13.5444V13.7512C31.3021 13.3635 31.6899 13.1567 32.0776 13.1567C32.0776 12.9499 32.2844 12.9499 32.4653 12.9499L33.0598 12.7432C33.4475 12.5364 33.6543 12.3554 33.8353 12.3554C34.4298 12.1486 34.8175 11.7609 34.9984 11.58C35.2052 11.3732 35.3861 11.1923 35.5929 10.8045C35.7997 10.5978 35.9807 10.4168 35.9807 10.0291C35.9807 9.82231 35.9806 9.43459 35.7739 9.25366C35.748 9.04687 35.5671 8.84009 35.3603 8.65915ZM31.8449 9.43459C31.8449 9.43459 31.6382 9.04687 31.6382 8.27143L31.4314 7.2892L31.2246 7.08241C31.4314 7.08241 31.6123 6.87563 31.8191 6.87563C32.0259 6.66884 32.2068 6.66884 32.4136 6.66884C32.6204 6.66884 32.6204 6.46206 32.8013 6.46206C33.0081 6.46206 33.0081 6.66884 33.189 6.66884C33.3958 6.87563 33.3958 6.87563 33.5768 7.05657C33.5768 7.26335 33.5768 7.44429 33.5768 7.65107C33.5768 7.85786 33.5768 8.03879 33.5768 8.24558C33.5768 8.24558 33.37 8.45236 33.37 8.6333C33.1632 8.6333 32.9823 8.84009 32.9823 9.02102C32.7755 9.02102 32.5945 9.02102 32.3878 9.22781C32.3878 9.22781 32.3878 9.22781 32.181 9.22781C32.0517 9.43459 32.0517 9.43459 31.8449 9.43459ZM34.5848 10.5978C34.5848 10.9855 34.5849 11.1923 34.3781 11.3732C34.1713 11.58 33.9903 11.7609 33.7836 11.9677C33.3958 11.9677 33.0081 12.1745 32.6204 12.3554L32.4136 12.1486C32.4136 11.9419 32.4136 11.5541 32.2068 11.3732C32 10.391 32 10.0033 32 9.79647C32.2068 9.79647 32.3878 9.58968 32.3878 9.58968C32.9823 9.3829 33.1632 9.20196 33.37 9.20196C33.5768 9.20196 33.7577 9.20196 33.9645 9.40874C34.1713 9.40874 34.3522 9.61553 34.559 9.79647C34.5849 10.0291 34.5848 10.4168 34.5848 10.5978Z" fill="#AF913B"/>
<path fill-rule="evenodd" clip-rule="evenodd" d="M41.4346 5.71246C41.2278 5.50567 41.2278 5.50567 41.0469 5.50567C40.8401 5.29889 40.6592 5.29889 40.4524 5.29889C40.0647 5.29889 39.8579 5.29889 39.677 5.50567H39.4702C39.2634 5.50567 38.8757 5.71246 38.6947 5.8934C38.307 6.10018 38.1002 6.4879 37.9193 6.66884C37.7125 6.87562 37.5316 7.05656 37.5316 7.26335C37.5316 7.47013 37.3248 7.85785 37.3248 8.24557C37.3248 8.6333 37.3248 9.02102 37.5316 9.40874C37.5316 9.61553 37.7383 9.79646 37.9193 10.0032C38.1261 10.21 38.307 10.21 38.5138 10.391C38.9015 10.391 39.1083 10.391 39.496 10.1842H39.7028C39.9096 9.9774 40.2973 9.9774 40.4782 9.79646C40.685 9.58968 40.866 9.40874 41.0727 9.02102C41.4605 8.81423 41.4605 8.6333 41.6673 8.42651C41.874 8.21973 41.874 7.83201 41.874 7.44428C41.874 7.05656 41.874 6.66884 41.6673 6.28112C41.6156 6.10018 41.6156 5.91924 41.4346 5.71246ZM40.6333 8.84008C40.6333 9.04687 40.4265 9.2278 40.4265 9.2278C40.2198 9.43459 40.0388 9.61552 39.832 9.61552H39.6253C39.4185 9.61552 39.2375 9.61552 39.0307 9.61552C38.824 9.40874 38.824 9.2278 38.643 9.02102C38.4362 8.6333 38.4362 8.03879 38.4362 7.65107C38.4362 7.05656 38.4362 6.66884 38.643 6.4879C38.8498 6.28112 39.0307 6.10018 39.2375 5.8934C39.4443 5.8934 39.4443 5.8934 39.6253 5.8934C39.6253 5.8934 39.832 5.8934 40.013 6.10018C40.2198 6.10018 40.4007 6.30697 40.4007 6.69469C40.6075 7.08241 40.6075 7.47013 40.6075 8.06464C40.6333 8.27142 40.6333 8.65914 40.6333 8.84008Z" fill="#AF913B"/>
<path fill-rule="evenodd" clip-rule="evenodd" d="M47.8708 6.90142C47.8708 7.10821 47.8708 7.10821 47.664 7.10821L47.4572 6.90142C47.4572 6.90142 47.4572 6.69464 47.4572 6.5137C47.4572 6.12598 47.4572 5.73826 47.4572 4.93696C47.664 4.34246 47.664 3.7738 47.664 3.36023C47.2763 3.56701 46.8886 3.74795 46.5008 3.74795C46.5008 4.13567 46.5008 4.34246 46.5008 4.91112C46.5008 5.29884 46.2941 5.68656 46.1131 6.07428C46.1131 6.462 45.9063 6.66879 45.7254 6.84973C45.5186 7.23745 45.5186 7.44423 45.3377 7.44423C45.1309 7.65102 45.1309 7.65102 45.1309 7.65102C44.9241 7.65102 44.9241 7.65102 44.9241 7.65102C44.9241 7.65102 44.9241 7.65102 44.9241 7.44423C44.7173 7.44423 44.7173 7.23745 44.7173 7.23745C44.7173 6.84973 44.9241 6.462 44.9241 5.47978C44.9241 5.09205 44.9241 4.70433 44.9241 4.49755V4.29076C44.9241 4.08398 44.9241 4.08398 44.7173 4.08398C44.7173 3.87719 44.5105 3.87719 44.5105 3.87719C44.3038 4.08398 44.1228 4.08398 43.916 4.26491C43.7093 4.4717 43.3215 4.85942 42.7529 5.42808L42.9597 5.63486C43.3474 5.24714 43.5542 5.04036 43.5542 5.04036C43.7609 5.04036 43.7609 5.04036 43.7609 5.04036C43.7609 5.04036 43.7609 5.04036 43.7609 5.24714C43.9677 5.24714 43.9677 5.45393 43.7609 5.63486C43.7609 6.02259 43.7609 6.41031 43.7609 7.00481C43.7609 7.39254 43.7609 7.78026 43.7609 7.78026C43.7609 7.98704 43.7609 8.16798 43.7609 8.16798C43.7609 8.37476 43.7609 8.5557 43.9677 8.5557C44.1745 8.5557 44.1745 8.5557 44.3555 8.5557C44.5622 8.5557 44.5622 8.5557 44.7432 8.34892C44.95 8.14213 45.3377 7.96119 45.5186 7.57347C45.9063 7.36669 46.1131 6.97897 46.2941 6.59124C46.2941 6.38446 46.5008 5.99674 46.5008 5.8158V6.79803C46.5008 7.00481 46.5009 7.39254 46.7076 7.39254C46.7076 7.59932 46.7076 7.59932 46.7076 7.59932C46.7076 7.80611 46.7076 7.80611 46.9144 7.98704C46.9144 7.98704 46.9144 7.98704 47.1212 7.98704C47.1212 7.98704 47.328 7.98704 47.328 7.78026C47.328 7.78026 47.5348 7.78026 47.7157 7.57347C47.9225 7.36669 47.9225 7.18575 48.1034 6.97897L48.6979 6.59124L48.4912 6.38446C48.0776 6.69464 47.8708 6.90142 47.8708 6.90142Z" fill="#AF913B"/>
<path fill-rule="evenodd" clip-rule="evenodd" d="M51.3862 2.79158C51.593 2.01614 51.593 1.62841 51.7739 1.21484H51.5671L50.7917 1.42163C50.7917 1.62841 50.5849 1.62841 50.4039 1.62841C50.4039 2.01614 50.4039 2.22292 50.4039 2.61064C50.4039 2.81743 50.4039 2.99836 50.4039 2.99836C49.8094 3.20515 49.4217 3.38609 49.2408 3.38609L49.034 3.77381L50.1972 3.56702C50.1972 3.77381 50.1972 4.16153 50.1972 4.73019C49.9904 5.71242 49.9904 6.30692 49.9904 6.48786C49.9904 6.48786 49.9904 6.69464 49.9904 6.87558C49.9904 6.87558 50.1972 7.08237 50.1972 7.2633C50.4039 7.2633 50.5849 7.2633 50.7917 7.2633C50.7917 7.2633 50.9985 7.2633 51.1794 7.05652C51.3862 7.05652 51.5671 6.84973 51.9548 6.46201C52.3426 6.25523 52.5493 6.07429 52.7303 5.86751L52.5235 5.66072C52.3167 5.86751 52.1358 6.04844 51.929 6.25523C51.7222 6.25523 51.5413 6.25523 51.5413 6.46201C51.3345 6.46201 51.3345 6.46201 51.3345 6.25523C51.1277 6.25523 51.1277 6.25523 51.1277 6.25523C51.1277 6.04844 51.1277 6.04844 51.1277 6.04844C51.1277 6.04844 51.1277 5.84166 51.1277 5.45394C51.3345 4.47171 51.3345 4.08398 51.3345 4.08398C51.3345 3.69626 51.3345 3.30854 51.3345 3.30854L51.929 3.10176C52.3167 3.10176 52.5235 3.10176 52.9112 3.10176C52.9112 2.89497 52.9112 2.71403 52.9112 2.50725C52.7044 2.50725 52.3167 2.71403 51.929 2.71403H51.3862V2.79158Z" fill="#AF913B"/>
<path fill-rule="evenodd" clip-rule="evenodd" d="M55.8837 5.71241C55.6769 5.71241 55.6769 5.71241 55.6769 5.9192L55.4701 5.71241C55.4701 5.71241 55.4701 5.50563 55.4701 5.32469C55.4701 5.1179 55.6769 4.73018 55.6769 3.95474C55.8837 3.36023 55.8837 2.97251 56.0646 2.79157C56.0646 2.58479 56.0646 2.58479 56.0646 2.40385L55.8579 2.19707C55.8579 2.19707 55.6511 1.99028 55.6511 2.19707C55.4443 2.19707 55.4443 2.19707 55.2633 2.19707C55.2633 2.19707 55.0566 2.40385 54.8756 2.40385C54.6688 2.61064 54.4879 2.61064 54.1002 2.99836L53.5057 3.38608L53.7125 3.7738C54.1002 3.38608 54.4879 3.1793 54.4879 3.1793H54.6947C54.6947 3.38608 54.6947 3.95474 54.4879 4.93697C54.2811 5.32469 54.2811 5.71241 54.2811 5.9192C54.2811 6.12598 54.2811 6.12598 54.2811 6.30692C54.2811 6.5137 54.2811 6.5137 54.4879 6.69464C54.4879 6.69464 54.4879 6.69464 54.6947 6.69464C54.9015 6.69464 54.9015 6.69464 55.0824 6.69464C55.0824 6.48785 55.4701 6.30692 55.6769 6.10013C56.0646 5.89335 56.4524 5.71241 56.6591 5.50563L56.4524 5.29884C56.2973 5.53147 56.0905 5.71241 55.8837 5.71241Z" fill="#AF913B"/>
<path fill-rule="evenodd" clip-rule="evenodd" d="M55.7028 1.21486C55.9096 1.21486 56.0905 1.21486 56.0905 1.00808C56.2973 0.801292 56.2973 0.620355 56.2973 0.41357C56.2973 0.41357 56.2973 0.206785 56.0905 0.206785C56.0905 0 55.8837 0 55.7028 0C55.496 0 55.3151 0.206785 55.1083 0.206785C55.1083 0.41357 54.9015 0.594507 54.9015 0.801292C55.1083 1.00808 55.1083 1.00808 55.1083 1.18901C55.3151 1.21486 55.496 1.21486 55.7028 1.21486Z" fill="#AF913B"/>
<path fill-rule="evenodd" clip-rule="evenodd" d="M61.9581 2.01614C61.7513 1.80936 61.5703 1.80936 61.3635 1.80936C61.1568 1.80936 60.9758 1.80936 60.5881 1.80936C60.3813 1.80936 60.2004 1.80936 59.9936 2.01614C59.7868 2.01614 59.3991 2.22293 59.0114 2.61065C58.6236 2.81743 58.4169 2.99837 58.2359 3.20515C58.0291 3.41194 57.8482 3.79966 57.8482 4.18738C57.6414 4.78189 57.6414 5.16961 57.6414 5.55733C57.6414 5.76412 57.6414 5.94505 57.6414 6.15184C57.8482 6.35862 58.0291 6.35862 58.2359 6.35862C58.4427 6.35862 58.8304 6.15184 59.2182 5.9709C59.4249 5.76412 59.8127 5.58318 59.9936 5.3764C60.3813 4.98867 60.5881 4.78189 60.9758 4.39417L60.769 5.3764C60.5623 6.35862 60.5623 6.95313 60.5623 7.13407C60.3555 7.72857 60.1745 8.1163 59.9678 8.1163C59.9678 8.32308 59.9678 8.32308 59.9678 8.32308C59.9678 8.32308 59.761 8.32308 59.761 8.52987V8.73665L59.9678 8.52987C60.1745 8.52987 60.3555 8.52987 60.7432 8.52987C60.95 8.32308 61.1309 8.32308 61.3377 8.32308C61.1309 8.32308 61.1309 8.32308 61.1309 8.32308C61.1309 8.1163 61.1309 7.93536 61.3377 7.54764L61.7254 5.01452C62.1131 3.85136 62.3199 2.86913 62.3199 2.48141C62.5267 2.09368 62.5267 1.8869 62.5267 1.8869L62.3199 1.68011L61.9581 2.01614ZM60.769 3.95475C60.5623 4.16153 60.3813 4.34247 60.1745 4.73019L59.9678 4.93698C59.761 5.14376 59.58 5.3247 59.3732 5.3247C59.1665 5.53148 59.1665 5.53148 58.9855 5.53148H58.7787V5.3247C58.7787 5.11791 58.7787 4.93698 58.7787 4.54926C58.9855 4.16153 58.9855 3.77381 59.1665 3.38609C59.3732 2.99837 59.3732 2.79158 59.5542 2.61065C59.5542 2.40386 59.761 2.40386 59.761 2.40386H59.9678C60.1745 2.19708 60.1745 2.19708 60.3555 2.19708C60.3555 2.19708 60.5623 2.19708 60.7432 2.19708C60.95 2.40386 61.1309 2.40386 61.1309 2.40386C61.1826 2.97252 60.9758 3.56703 60.769 3.95475Z" fill="#AF913B"/>
<path fill-rule="evenodd" clip-rule="evenodd" d="M68.0065 4.93698C68.0065 4.54926 68.2133 4.16153 68.3942 3.56703C68.601 2.79158 68.7819 2.40386 68.9887 1.99029L68.7819 1.78351C68.3942 1.99029 68.0065 1.99029 67.6188 1.99029C67.6188 2.37801 67.6188 2.5848 67.412 2.97252C67.2052 3.36024 67.0243 3.74796 66.6365 4.13569C66.4298 4.52341 66.2488 4.73019 66.042 4.91113C65.8352 5.11791 65.6543 5.29885 65.4475 5.29885H65.2407H65.034C65.034 5.29885 65.034 5.29885 65.034 5.09207V4.88528C65.2407 4.49756 65.4217 4.10984 65.6285 3.30855C65.8352 2.92083 65.8352 2.5331 66.0162 2.32632C66.0162 2.32632 66.0162 2.11953 66.0162 1.9386C66.0162 1.9386 66.0162 1.73181 65.8094 1.73181C65.8094 1.73181 65.8094 1.73181 65.6026 1.73181C65.3958 1.73181 65.2149 1.73181 65.0081 1.73181C64.8013 1.9386 64.2327 2.11953 63.6382 2.50726V2.71404C64.2327 2.50726 64.4136 2.50726 64.4136 2.50726C64.6204 2.50726 64.6204 2.50726 64.6204 2.50726C64.6204 2.50726 64.6204 2.50726 64.6204 2.71404C64.6204 2.71404 64.6204 2.92083 64.4136 3.10176C64.4136 3.48948 64.2068 3.87721 64.0259 4.47171C63.8191 4.85943 63.8191 5.06622 63.8191 5.24716C63.6123 5.24716 63.6123 5.45394 63.6123 5.63488C63.6123 5.63488 63.8191 5.84166 63.8191 6.0226C63.8191 6.0226 64.0259 6.0226 64.2068 6.0226C64.4136 6.0226 64.4136 6.0226 64.5945 6.0226C64.9823 5.81581 65.189 5.81581 65.5768 5.42809C65.9645 5.22131 66.3522 4.83359 66.559 4.65265C66.7658 4.44586 66.9467 4.26493 67.1535 4.05814L66.7658 5.04037C66.7658 5.24716 66.7658 5.42809 66.7658 5.63488C66.7658 5.63488 66.559 5.63488 66.559 5.84166L66.7658 6.04845L66.9726 6.25523C67.1794 6.25523 67.1793 6.25523 67.1793 6.04845C67.3861 6.04845 67.5671 6.04845 67.7739 6.04845C67.7739 5.84166 67.9806 5.84166 68.3684 5.66073L68.9629 5.273L68.7561 5.06622C68.3684 5.273 68.1616 5.45394 68.1616 5.45394C67.9548 5.45394 67.9548 5.45394 67.9548 5.45394H67.748V5.24716C67.8256 5.3247 67.8256 5.14376 68.0065 4.93698Z" fill="#AF913B"/>
<path fill-rule="evenodd" clip-rule="evenodd" d="M73.3054 2.40386C73.0986 2.19707 72.9176 2.40386 72.5299 2.40386H72.3231C71.9354 2.61064 71.5477 2.61064 71.3409 2.79158C70.9532 2.99836 70.7464 3.1793 70.7464 3.38608C70.5396 3.38608 70.3587 3.59287 70.1519 3.98059C69.9451 4.5751 69.7642 4.96282 69.7642 5.35054C69.7642 5.55733 69.7642 5.73826 69.9709 5.94505C69.9709 6.15183 70.1777 6.33277 70.3587 6.33277C70.5654 6.53955 70.7464 6.53955 71.1341 6.53955C71.3409 6.53955 71.5218 6.53955 71.7286 6.53955C71.9354 6.53955 72.1163 6.53955 72.3231 6.33277C72.3231 6.33277 72.5299 6.33277 72.7108 6.33277C72.7108 6.33277 73.0986 6.12598 73.6931 5.94505V5.55733C73.3054 5.76411 72.9176 5.94505 72.5299 5.94505H72.3231C72.1163 6.15183 71.9354 6.15183 71.7286 5.94505C71.5218 5.94505 71.3409 5.94505 71.3409 5.73826C71.1341 5.73826 70.9532 5.53148 71.1341 5.14376C71.1341 4.93697 71.1341 4.75603 71.1341 4.54925C71.5218 4.54925 71.9096 4.54925 72.2973 4.54925C72.5041 4.54925 72.5041 4.54925 72.685 4.34246C73.2795 4.34246 73.6672 4.13568 73.8482 3.95474C74.0549 3.74796 74.2359 3.36024 74.2359 3.1793C74.2359 2.97251 74.2359 2.79158 74.0291 2.58479C73.874 2.40386 73.6931 2.40386 73.3054 2.40386ZM73.0986 3.56702C72.8918 3.77381 72.7108 3.95474 72.7108 3.95474C72.5041 4.16153 72.5041 4.16153 72.3231 4.16153C72.1163 4.16153 72.1163 4.36831 71.9354 4.36831C71.9354 4.36831 71.5477 4.36831 71.3409 4.36831C71.3409 3.98059 71.5477 3.59287 71.7286 3.38608C71.9354 2.99836 72.1163 2.99836 72.3231 2.79158C72.5299 2.79158 72.7108 2.58479 72.7108 2.79158C72.9176 2.79158 73.0986 2.79158 73.0986 2.79158C73.3054 2.99836 73.3054 2.99836 73.3054 3.1793C73.3054 3.38608 73.0986 3.56702 73.0986 3.56702Z" fill="#AF913B"/>
<path fill-rule="evenodd" clip-rule="evenodd" d="M85.2214 4.16153C85.2214 3.77381 85.2214 3.56702 85.2214 3.38609C85.0146 2.99837 85.0146 2.79158 84.6269 2.61064C84.4201 2.40386 84.0323 2.40386 83.4637 2.22292C83.2569 2.22292 82.8692 2.01614 82.3005 2.01614C81.9128 1.80935 81.5251 1.80935 81.3183 1.80935C80.9306 1.60257 80.3361 1.42163 79.5606 1.42163V1.62842C79.9483 1.8352 80.1551 1.8352 80.3361 1.8352C80.3361 1.8352 80.3361 1.8352 80.5429 2.04199C80.5429 2.04199 80.5429 2.04199 80.5429 2.24877C80.3361 2.24877 80.1551 2.84328 79.9483 3.61872C79.5606 4.39416 79.1729 5.37639 78.5784 6.35862C78.3716 6.74634 78.3716 6.95313 78.1907 6.95313C77.9839 7.15991 77.8029 6.95313 77.4152 6.95313L77.2084 7.15991C78.1907 7.3667 78.7593 7.54764 78.9661 7.54764L80.7238 7.93536V7.72857C80.3361 7.52179 80.1293 7.52179 80.1293 7.52179C79.9225 7.315 79.9225 7.315 79.7416 7.315C79.7416 7.315 79.7416 7.315 79.7416 7.10822C79.7416 7.10822 79.7416 7.10822 79.9483 6.90143C79.9483 6.69465 80.3361 5.9192 80.7238 4.75604C81.3183 3.59287 81.706 2.79158 81.887 2.40386C82.2747 2.40386 82.4815 2.40386 82.6624 2.40386C83.0501 2.61064 83.2569 2.61064 83.4378 2.79158C83.6446 2.79158 83.8256 2.99837 83.8256 3.1793C83.8256 3.38609 83.8256 3.56702 83.8256 3.77381C83.8256 4.16153 83.6188 4.36832 83.4378 4.75604C83.2311 4.96282 82.8433 5.14376 82.6624 5.14376C82.4556 5.35054 82.0679 5.35054 81.887 5.14376C81.6802 5.14376 81.4992 5.14376 81.1115 4.93697V5.3247C81.4992 5.3247 81.887 5.53148 82.0937 5.71242C82.4815 5.71242 82.8692 5.71242 83.2569 5.71242C83.6446 5.71242 83.8514 5.50563 84.2391 5.3247C84.4459 5.3247 84.6269 5.11791 84.8336 4.93697C85.0146 4.75604 85.2214 4.34247 85.2214 4.16153Z" fill="#AF913B"/>
<path fill-rule="evenodd" clip-rule="evenodd" d="M90.3135 6.10016C90.1067 6.10016 89.9257 6.10016 89.9257 5.89337C89.7189 5.89337 89.538 6.10016 89.3312 6.10016C89.1244 6.10016 88.7367 6.10016 88.5558 6.30694C88.349 6.30694 87.9613 6.51373 87.5735 6.69467C87.3668 6.69467 87.1858 6.90145 86.7981 7.08239L87.7803 5.32471C87.9871 5.11793 88.1681 4.73021 88.5558 4.16155C88.7626 3.77383 88.9435 3.56704 89.1503 3.38611H88.9435C88.7367 3.38611 88.349 3.38611 87.9613 3.17932C87.5735 3.17932 87.1858 3.17932 86.979 3.17932L86.7723 3.38611C87.16 3.59289 87.5477 3.59289 87.5477 3.59289V3.79968C87.5477 3.79968 87.5477 4.00646 87.5477 4.1874C87.16 4.57512 86.9532 4.96284 86.3845 5.76413C85.79 6.74636 85.4023 7.34087 85.2214 7.72859C85.0146 8.11631 84.8336 8.50403 84.4459 8.89176V9.09854C84.6527 9.09854 84.8336 9.09854 85.2214 9.09854C85.4282 9.09854 85.6091 9.09854 85.6091 9.09854C85.6091 9.09854 85.8159 8.89176 85.9968 8.71082C86.2036 8.3231 86.3845 7.93538 86.7723 7.72859C86.979 7.34087 87.3668 7.13408 87.7545 6.95315C87.9613 6.74636 88.349 6.56542 88.5299 6.56542C88.7367 6.56542 88.9177 6.56542 88.9177 6.56542L89.1244 6.77221C89.1244 6.77221 89.1244 6.77221 89.1244 6.97899C89.1244 6.97899 88.7367 7.5735 88.1422 8.34894C87.7545 8.73667 87.5477 9.12439 87.5477 9.12439C87.5477 9.33117 87.5477 9.33117 87.3409 9.51211C87.3409 9.71889 87.3409 9.71889 87.5477 9.89983C87.5477 9.89983 87.5477 10.1066 87.7545 10.1066C87.7545 10.1066 88.1422 10.1066 88.349 10.1066C88.7367 10.1066 89.1244 9.89983 89.8999 9.7189L89.6931 9.51211C89.4863 9.51211 89.0986 9.51211 89.0986 9.7189C88.8918 9.7189 88.8918 9.71889 88.8918 9.51211C88.685 9.51211 88.685 9.51211 88.685 9.51211C88.685 9.51211 88.685 9.51211 88.685 9.30533C88.8918 9.09854 89.0727 8.71082 89.6673 7.93537C90.055 7.54765 90.2618 7.15993 90.4427 6.95315C90.4427 6.74636 90.4427 6.74636 90.4427 6.56542V6.35864C90.4944 6.10016 90.3135 6.10016 90.3135 6.10016Z" fill="#AF913B"/>
<path fill-rule="evenodd" clip-rule="evenodd" d="M95.9742 8.27139C95.7674 8.0646 95.5864 8.0646 95.1987 7.88366C94.811 7.67688 94.6042 7.67688 94.2165 7.67688C94.0097 7.67688 93.8288 7.67688 93.8288 7.67688C93.622 7.67688 93.441 7.67688 93.2343 7.67688C92.8465 7.88366 92.6398 7.88366 92.4588 7.88366C92.252 8.09045 92.0711 8.27139 91.6834 8.65911C91.4766 8.86589 91.2957 9.25361 91.0889 9.64134C91.0889 9.84812 91.0889 10.0291 91.0889 10.2358C91.0889 10.6236 91.0889 10.8304 91.2956 11.0113C91.5024 11.2181 91.8902 11.399 92.2779 11.399C92.4847 11.6058 92.8724 11.6058 93.2601 11.7867C93.2601 11.7867 93.6478 11.7867 93.8546 11.7867L94.0614 11.5799C94.4491 11.5799 94.8368 11.5799 95.0436 11.3732C95.2504 11.3732 95.4314 11.1664 95.8191 10.7787C96.0259 10.5719 96.2068 10.1841 96.4136 9.79643C96.4136 9.58964 96.6204 9.4087 96.6204 9.20192C96.6204 8.99513 96.4136 8.8142 96.4136 8.8142C96.3619 8.65911 96.181 8.45232 95.9742 8.27139ZM95.1987 9.43455C94.9919 9.82227 94.811 10.21 94.4233 10.5977C94.2165 10.8045 94.0356 10.9854 93.8288 11.1922C93.622 11.1922 93.4411 11.399 93.4411 11.399C93.2343 11.399 93.0533 11.399 92.8465 11.1922C92.6398 11.1922 92.4588 10.9854 92.252 10.8045C92.252 10.5977 92.252 10.4168 92.252 10.0291C92.4588 9.64134 92.6398 9.25361 93.0275 8.86589C93.2343 8.47817 93.622 8.27139 93.8029 8.09045C94.1906 8.09045 94.3974 8.09045 94.5784 8.09045C94.9661 8.29723 95.1729 8.29723 95.1729 8.47817C95.3797 8.84004 95.3797 9.04683 95.1987 9.43455Z" fill="#AF913B"/>
<path fill-rule="evenodd" clip-rule="evenodd" d="M101.635 10.8045C101.428 10.8045 101.04 10.5978 100.859 10.4168L100.265 10.21C100.859 9.61553 101.247 9.22781 101.428 9.04687L101.221 8.84009H100.446C100.446 8.84009 100.239 8.6333 100.058 8.6333C100.058 8.84009 99.8514 9.02102 99.6704 9.40874C99.4637 9.40874 99.2827 9.61553 99.2827 9.61553C98.6882 9.61553 98.3005 9.61553 98.1196 9.40874L97.9128 9.61553L98.895 10.21C98.895 10.21 98.5073 10.5978 98.1196 11.1923C97.5251 11.9677 97.1373 12.3554 97.1373 12.3554C97.1373 12.5622 96.9305 12.7432 96.9305 12.7432C96.9305 12.9499 96.9305 13.1309 96.9305 13.1309C96.9305 13.3377 97.1373 13.5186 97.3183 13.5186C97.3183 13.5186 97.525 13.5186 97.706 13.7254C97.9128 13.7254 98.3005 13.7254 98.6882 13.5186C99.2827 13.5186 99.4637 13.5186 99.6704 13.5186V13.1309C99.4637 13.3377 99.0759 13.3377 98.6882 13.3377C98.6882 13.3377 98.4814 13.3377 98.3005 13.1309C98.0937 13.1309 98.0937 12.9241 98.3005 12.9241C98.3005 12.9241 98.3005 12.9241 98.3005 12.7173C98.3005 12.7173 98.5073 12.5105 98.6882 12.3296C99.2827 11.5541 99.4637 11.1664 99.4637 11.1664C99.8514 10.9596 99.8514 10.5719 100.058 10.5719L100.446 10.7787C100.834 10.9855 101.04 11.1664 101.428 11.1664C101.454 11.1923 101.454 11.0113 101.635 10.8045Z" fill="#AF913B"/>
<path fill-rule="evenodd" clip-rule="evenodd" d="M105.952 12.9499C105.745 12.7431 105.564 12.5622 105.176 12.3554C104.969 12.1486 104.582 12.1486 104.194 12.1486C103.987 11.9418 103.806 11.9418 103.599 11.9418C103.393 11.9418 103.393 11.9418 103.212 11.9418C102.824 12.1486 102.617 12.1486 102.436 12.1486C102.229 12.3554 102.049 12.3554 101.661 12.7431C101.454 12.9499 101.273 13.3376 101.066 13.7254C100.86 13.9321 100.859 14.1131 100.859 14.3199C100.859 14.5266 100.86 14.9144 101.066 15.0953C101.273 15.3021 101.454 15.483 101.842 15.6898C102.229 15.8966 102.436 15.8966 102.824 16.0775C103.031 16.0775 103.212 16.0775 103.599 16.0775H103.806C104.013 16.0775 104.401 16.0775 104.582 15.8707C104.788 15.8707 105.176 15.664 105.357 15.2762C105.745 15.0695 105.952 14.6817 106.133 14.5008C106.339 14.294 106.339 14.1131 106.339 13.9063C106.339 13.6995 106.339 13.5186 106.339 13.3118C106.133 13.1567 106.133 13.1567 105.952 12.9499ZM104.969 13.9321C104.763 14.3199 104.582 14.7076 104.194 14.9144C103.987 15.3021 103.806 15.3021 103.599 15.5089C103.393 15.7157 103.212 15.7157 103.005 15.7157C102.798 15.7157 102.617 15.7157 102.41 15.5089C102.204 15.3021 102.023 15.3021 102.023 15.1212C101.816 14.7334 102.023 14.5266 102.023 14.1389C102.229 13.9321 102.617 13.5444 103.005 13.1567C103.212 12.9499 103.393 12.769 103.599 12.5622C103.599 12.5622 103.806 12.5622 103.806 12.3554C104.194 12.3554 104.401 12.3554 104.582 12.5622C104.969 12.769 104.969 12.769 105.176 13.1567C105.176 13.3376 105.176 13.5444 104.969 13.9321Z" fill="#AF913B"/>
<path d="M47.6898 58.9079C47.8966 58.9079 47.8966 58.9079 47.8966 58.7011C47.8966 58.7011 47.8966 58.7011 47.6898 58.7011L47.0953 58.1066L46.5008 58.7011H45.3376V56.5558C45.5444 56.349 45.7253 56.349 45.7253 56.168C45.7253 56.168 45.5185 56.168 45.3376 56.168L44.5622 55.9612C44.5622 56.168 44.5622 56.349 44.5622 56.5558V62.6042C44.1744 62.811 43.7867 62.811 43.399 62.9919L43.7867 63.7674C43.7867 63.7674 43.7867 63.9742 43.9935 63.9742C43.9935 63.9742 43.9935 63.9742 43.9935 63.7674L44.2003 63.5606C45.5702 62.9661 46.7334 62.3974 47.9224 61.9839L47.7156 61.7771C46.9402 61.9839 46.1389 62.1648 45.3634 62.3716V58.8562H47.6898V58.9079Z" fill="#AF913B"/>
<path d="M52.1874 61.2601H51.9806L51.3861 62.4233C51.3861 62.6301 51.3861 62.811 51.1793 62.811C51.1793 62.811 50.9725 62.811 50.7916 62.811H49.4216C49.0339 62.811 49.0339 62.6042 49.0339 62.4233V59.5024C50.1971 59.1147 50.9984 58.727 51.567 58.3393C51.9547 58.3393 51.9547 58.3393 51.9547 58.3393C51.9547 58.1325 51.9547 58.1325 51.9547 58.1325L51.1793 57.538C50.7916 57.9257 50.4039 58.1325 50.0161 58.5202C49.8093 58.727 49.4216 58.9079 49.0339 59.1147V56.5816L49.2407 56.3748C49.2407 56.3748 49.4475 56.3748 49.4475 56.168C49.4475 56.168 49.2407 56.168 49.0597 55.9612H48.2843C48.2843 55.9612 48.2843 56.168 48.2843 56.5558V62.6042C48.2843 63.1987 48.672 63.3797 49.2665 63.3797H51.0242C51.4119 63.3797 51.7997 63.3797 52.1874 63.3797C52.3942 63.1729 52.3942 63.1729 52.3942 62.9919V62.7851C52.1874 62.5784 52.1874 62.5784 52.1874 62.3974V61.2601Z" fill="#AF913B"/>
<path d="M61.9579 59.0889C61.9579 59.2956 62.1647 59.4766 62.3457 59.4766C62.3457 59.4766 62.5525 59.4766 62.7334 59.2698C62.7334 59.2698 62.7334 59.2698 62.7334 59.063V58.8562H64.3101H65.4733V59.063C65.4733 59.2698 65.6801 59.2698 65.861 59.2698H66.0678C66.2746 59.2698 66.2746 59.063 66.2746 59.063V58.2876V56.7108L66.4814 56.504C66.4814 56.504 66.6882 56.5041 66.6882 56.2973H66.4814L65.8869 55.7028L65.2924 56.2973H64.3101H62.7334L61.9579 55.9095C61.9579 55.9095 62.1647 56.1163 62.1647 56.504V58.2617L61.9579 59.0889ZM62.7334 56.5557H64.3101H65.4733V57.3312H64.3101H62.7334V56.5557ZM62.7334 57.7189H64.3101H65.4733V58.7011H64.3101H62.7334V57.7189Z" fill="#AF913B"/>
<path d="M64.491 62.811V61.6478H66.8432C66.8432 61.6478 66.8432 61.6478 66.8432 61.441C66.8432 61.441 66.8432 61.441 66.8432 61.2342L66.0678 60.8465L65.4733 61.441H64.491V60.0711H67.2309C67.4377 60.0711 67.4377 60.0711 67.4377 59.8643C67.4377 59.8643 67.4377 59.8643 67.4377 59.6575L66.6623 59.2698L66.0678 59.8643H64.3101H62.1647C61.777 59.8643 61.3893 59.8643 61.0015 59.6575L61.2083 60.252C61.4151 60.0452 61.8028 60.0452 62.1906 60.0452H63.7414V62.5783C63.5347 62.5783 63.1469 62.3715 62.966 62.1906C62.7592 61.9838 62.7592 61.9838 62.5783 61.8029C62.7851 61.5961 62.7851 61.4152 62.7851 61.0274C63.1728 61.0274 63.1728 60.8207 63.1728 60.8207C63.1728 60.8207 63.1728 60.6139 62.966 60.6139H62.1906C61.9838 61.0016 61.9838 61.5961 61.8028 61.9838C61.5961 62.1906 61.4151 62.5783 61.0274 62.9661C61.0274 62.9661 60.8206 62.9661 60.8206 63.1728C60.6138 63.1728 60.2261 63.3796 59.8384 63.7673H60.0452C60.4329 63.7673 60.6397 63.5606 60.8206 63.5606C61.0274 63.3538 61.2083 63.3538 61.4151 63.1728C61.8028 62.9661 62.0096 62.5783 62.1906 62.3974C62.3973 62.1906 62.3973 62.1906 62.3973 62.0097C62.6041 62.2165 62.6041 62.3974 62.7851 62.3974C62.9919 62.7851 63.3796 62.9919 63.5605 63.1728C63.7673 63.1728 63.9482 63.3796 64.336 63.3796C64.5427 63.3796 64.5427 63.3796 64.7237 63.5864C65.3182 63.5864 66.0936 63.7932 67.0759 63.7932C67.0759 63.4055 67.2826 63.1987 67.2826 63.1987C67.2826 63.1987 67.4894 63.1987 67.6704 63.1987V62.811C67.0759 62.811 66.5072 62.811 66.1195 62.811C65.2665 62.811 64.8788 62.811 64.491 62.811Z" fill="#AF913B"/>
<path d="M60.769 61.441H60.9757C61.1825 61.2342 61.3635 61.0533 61.5703 60.8465V60.6397C61.3635 60.8465 60.9757 60.8465 60.7948 61.0274H60.588C60.3812 61.0274 60.3812 61.0274 60.2003 61.0274V58.2875H60.7948H61.5703C61.5703 58.2875 61.777 58.2875 61.777 58.0808C61.777 58.0808 61.5703 58.0808 61.5703 57.874L60.9757 57.4862L60.769 57.693L60.3812 58.0808H60.2003V56.504C60.4071 56.504 60.588 56.2972 60.588 56.2972C60.588 56.0905 60.588 56.0905 60.3812 56.0905L59.399 55.8837C59.399 56.2714 59.399 56.2714 59.399 56.4782V58.0549C59.1922 58.0549 58.8045 58.0549 58.6236 57.8481L58.8303 58.2358C59.0371 58.2358 59.2181 58.2358 59.4249 58.2358V61.1567C59.0371 61.3635 58.6494 61.3635 58.4426 61.3635L58.6494 62.3457C58.8562 62.3457 58.8562 62.5525 58.8562 62.5525C59.063 62.5525 59.063 62.3457 59.063 62.3457L59.2698 61.958C59.4766 61.958 59.6575 61.958 59.8643 61.7512C60.2003 61.6478 60.588 61.6478 60.769 61.441Z" fill="#AF913B"/>
<path d="M76.2262 61.441H76.0194C76.2262 61.0533 76.2262 60.8465 76.4071 60.4588C76.6139 59.8643 76.7948 59.0889 77.0016 58.1066V57.8998C77.2084 57.8998 77.2084 57.6931 77.2084 57.6931L77.0016 57.4863L76.6139 57.0986L76.0194 57.4863H75.4507C75.6575 57.0986 75.6575 56.7108 75.8384 56.3231L76.0452 56.1163C76.0452 56.1163 76.252 56.1163 76.252 55.9095C76.252 55.9095 76.0452 55.9095 75.8643 55.9095L75.4766 55.7028H75.0889C75.0889 56.2973 74.8821 56.685 74.8821 57.0727C74.8821 57.2795 74.8821 57.4604 74.6753 57.4604C74.4685 57.4604 74.0808 57.4604 73.6931 57.4604L73.8998 57.8482C74.1066 57.8482 74.4943 57.8482 74.6753 57.8482C74.6753 58.2359 74.4685 58.8304 74.2876 59.2181C74.0808 59.8126 73.8998 60.5881 73.6931 61.1826C73.6931 61.1826 73.6931 61.1826 73.6931 61.3893C73.6931 61.3893 73.8998 61.3893 74.0808 61.3893C74.0808 61.3893 74.0808 61.3893 74.2876 61.3893C74.2876 61.3893 74.2876 61.3893 74.4943 61.1826V61.0533C74.7011 61.2601 75.0888 61.441 75.2698 61.6478C75.063 62.0355 74.8821 62.2423 74.4943 62.6301C74.2876 63.0178 73.8998 63.2246 73.7189 63.6123L73.9257 63.8191C74.3134 63.4313 74.7011 63.2246 74.9079 62.8368C75.1147 62.6301 75.2956 62.4491 75.5024 62.2423C75.5024 62.2423 75.5024 62.0355 75.7092 62.0355C75.916 62.0355 75.916 62.2423 76.0969 62.4233C76.3037 62.6301 76.4846 62.6301 76.6914 62.6301C76.8982 62.6301 77.0792 62.6301 77.0792 62.2423C77.0016 62.0355 76.6139 61.8288 76.2262 61.441ZM75.8384 60.2779C75.6317 60.4847 75.6317 60.8724 75.4507 61.0533C75.2439 61.0533 74.8562 60.8465 74.6753 60.6656C74.8821 60.2779 74.8821 59.6834 75.063 59.0889C75.2698 58.7011 75.2698 58.4944 75.4507 58.1066V57.8998H76.2262C76.0452 58.9079 75.8384 59.6834 75.8384 60.2779Z" fill="#AF913B"/>
<path d="M82.8691 57.9257C82.8691 57.9257 82.8691 57.9257 82.6623 57.9257L82.0678 57.3312L81.4733 57.9257H80.4911C80.2843 57.9257 80.2843 57.7189 80.2843 57.7189C80.2843 57.5121 80.2843 57.1244 80.2843 56.7367C80.672 56.7367 81.2665 56.5299 81.6543 56.5299H82.042C82.042 56.5299 82.042 56.5299 82.042 56.3231C82.042 56.3231 82.042 56.3231 82.042 56.1163L81.2665 55.7286C80.8788 55.9354 80.4911 56.1163 79.8966 56.3231H79.6898C79.483 56.5299 79.3021 56.5299 78.9143 56.5299C78.7076 56.5299 78.5266 56.5299 78.1389 56.7367L77.5444 56.3489C77.5444 56.5557 77.5444 56.7367 77.5444 56.9434V59.4766C77.3376 59.4766 77.1567 59.6833 76.9499 59.6833H76.7431L76.9499 60.2778L77.1567 60.4846C77.1567 60.6914 77.1567 60.6914 77.3635 60.6914C77.3635 60.6914 77.3635 60.6914 77.3635 60.4846L77.5702 60.2778C77.958 60.0711 78.5525 59.8901 78.9402 59.6833C79.3279 59.6833 79.7156 59.4766 79.9224 59.4766L80.1292 59.2698V59.063H79.9224C79.7156 59.2698 79.3279 59.2698 78.9402 59.2698C78.7334 59.4766 78.5525 59.4766 78.3457 59.4766V58.1066H78.9402H79.7156C79.9224 58.3134 79.9224 58.4943 79.9224 58.4943C80.1292 58.7011 80.1292 58.7011 80.1292 58.7011C80.336 59.0888 80.5169 59.2956 80.9047 59.6833C81.1114 59.8901 81.4992 60.0711 81.8869 60.0711C82.0937 60.2778 82.2746 60.2778 82.4814 60.2778C82.6882 60.2778 82.8691 60.2778 82.8691 60.0711C82.8691 59.8643 82.8691 59.8643 82.6623 59.6833V59.5024C82.6623 59.5024 82.6623 59.1147 82.6623 58.727L82.0678 59.3215C81.861 59.3215 81.861 59.3215 81.861 59.3215C81.6542 59.3215 81.2665 59.1147 81.2665 58.9337C80.8788 58.9337 80.8788 58.727 80.672 58.546C80.672 58.3392 80.4652 58.3392 80.4652 58.1583H82.6106C82.8691 58.1325 82.8691 58.1325 82.8691 57.9257ZM78.966 57.9257H78.3715V56.9434C78.5783 56.9434 78.7593 56.9434 78.966 56.9434C79.1728 56.7367 79.3538 56.7367 79.5605 56.7367C79.5605 57.1244 79.7673 57.5121 79.7673 57.8998H78.966V57.9257Z" fill="#AF913B"/>
<path d="M81.4991 60.2778L81.1114 60.6656H79.9482H78.966H78.5783L77.8029 60.2778C77.8029 60.2778 77.8029 60.4846 77.8029 60.8723V62.8368V63.6122C77.8029 63.819 77.8029 63.819 78.0096 63.819C78.2164 63.819 78.2164 63.819 78.3974 63.819C78.6041 63.819 78.6042 63.6122 78.6042 63.6122V63.4055H78.9919H79.9741H81.1373V63.6122C81.1373 63.819 81.3441 63.819 81.525 63.819C81.7318 63.819 81.9127 63.819 81.9127 63.819C81.9127 63.6122 82.1195 63.6122 82.1195 63.6122L81.9127 62.8368V61.0533L82.3004 60.8465C82.3004 60.8465 82.3004 60.8465 82.3004 60.6397C82.3004 60.6397 82.3004 60.6397 82.0936 60.6397L81.4991 60.2778ZM81.1114 63.1987H79.9482H78.966H78.5783V62.0355H78.966H79.9482H81.1114V63.1987ZM81.1114 61.8287H79.9482H78.966H78.5783V60.8465H78.966H79.9482H81.1114V61.8287Z" fill="#AF913B"/>
<path d="M96.3619 57.538L96.1552 57.7447C96.7497 58.1325 97.1374 58.727 97.3183 59.1147C97.5251 59.3215 97.5251 59.3215 97.706 59.3215C97.9128 59.3215 98.0938 59.3215 98.0938 58.9338C98.0938 58.727 97.887 58.546 97.706 58.3393C97.3442 58.1325 96.9564 57.7189 96.3619 57.538Z" fill="#AF913B"/>
<path d="M93.441 60.2779C94.0355 60.4847 94.4233 60.4847 94.4233 60.4847C94.4233 60.6914 94.4233 60.8724 94.4233 61.0792C94.6301 61.0792 95.0178 60.8724 95.1987 60.8724C95.4055 60.6656 95.5864 60.4847 95.5864 60.0969V56.5816L95.7932 56.3748C96 56.3748 96 56.3748 96 56.168C96 56.168 96 55.9612 95.7932 55.9612H94.811C94.811 56.168 94.811 56.5557 94.811 57.1244V59.8643C94.811 60.0711 94.811 60.252 94.6042 60.252L93.441 60.0452V60.2779Z" fill="#AF913B"/>
<path d="M89.9257 58.5202C89.9257 58.727 89.9257 58.727 90.1325 58.727C90.3392 58.727 90.5202 58.5202 90.5202 58.3393C90.5202 58.1325 90.3134 57.9515 90.1325 57.7448C89.9257 57.7448 89.9257 57.7448 89.9257 57.538C90.3134 57.1503 90.5202 56.7625 90.7011 56.5557C91.0888 56.349 91.2956 56.349 91.2956 56.349C91.2956 56.1422 91.0888 56.1422 91.0888 56.1422L90.1066 55.7545C90.1066 56.1422 89.8998 56.349 89.8998 56.7367C89.693 56.9435 89.693 57.1244 89.5121 57.3312V57.538C89.5121 57.3312 89.3053 57.3312 89.1244 57.1503L88.9176 57.357C89.1244 57.5638 89.3053 57.9515 89.5121 58.1325C89.7189 58.3134 89.7189 58.3134 89.9257 58.5202Z" fill="#AF913B"/>
<path d="M92.6396 59.8901C93.0274 59.6833 93.2342 59.5024 93.4151 59.1147C93.6219 58.7269 93.8028 58.5202 94.0096 57.9515C94.3973 57.9515 94.3973 57.9515 94.3973 57.9515C94.3973 57.7447 94.3973 57.7447 94.1905 57.7447L93.4151 57.357C93.2083 57.9515 93.0274 58.3392 93.0274 58.7269C92.8206 59.1147 92.6396 59.5024 92.4329 59.8901H92.6396Z" fill="#AF913B"/>
<path d="M92.0711 62.4233C92.0711 62.63 92.0711 62.811 92.2779 62.811C92.4846 62.811 92.6656 62.6042 92.6656 62.2165C92.6656 62.0097 92.6656 61.8288 92.4588 61.622L92.252 61.4152C92.0452 61.2084 92.0452 61.2084 92.0452 61.0275C91.8384 61.0275 91.8384 61.0275 91.6575 60.8207L91.4766 61.0533C91.6833 61.441 91.8643 61.8288 92.0711 62.2165V62.4233Z" fill="#AF913B"/>
<path d="M90.1066 61.0533L89.5121 60.8465H89.3053C89.3053 61.2342 89.3053 61.441 89.0985 61.8287C89.0985 62.2164 88.8918 62.6042 88.7108 63.1987H89.0985C89.3053 62.9919 89.3053 62.811 89.4863 62.4232C89.693 62.0355 89.874 61.6478 89.874 61.2601C90.0808 61.2601 90.2617 61.2601 90.2617 61.2601C90.3134 61.0533 90.3134 61.0533 90.1066 61.0533Z" fill="#AF913B"/>
<path d="M91.8643 60.071C91.8643 60.2778 91.8643 60.4588 92.071 60.4588H92.2778C92.4846 60.4588 92.4846 60.252 92.4846 60.071C92.4846 59.8643 92.4846 59.6833 92.2778 59.4765C92.071 59.2697 92.071 59.2697 92.071 59.0888C91.8643 59.0888 91.6833 58.882 91.4765 58.7011V58.9079C91.4765 59.1147 91.4765 59.2956 91.6833 59.5024C91.0888 59.5024 90.5202 59.7092 90.1324 59.7092C90.9079 58.9337 91.5024 58.1324 92.0969 57.5638C92.0969 57.5638 92.0969 57.5638 92.3037 57.5638C92.3037 57.5638 92.5105 57.5638 92.5105 57.357H92.252L92.0452 57.1502L91.4507 56.9434C91.063 57.3311 90.8562 57.9256 90.4685 58.5202C90.2617 58.7269 90.0807 59.2956 89.693 59.6833H89.4862C89.2794 59.6833 89.0985 59.6833 88.8917 59.6833L89.0985 60.4588C89.0985 60.6655 89.0985 60.6655 89.3053 60.6655L89.5121 60.4588C89.8998 60.252 90.1066 60.252 90.2875 60.071V61.2342V62.8109V63.7932L90.4943 64C90.7011 64 90.882 63.7932 90.882 63.7932C91.0888 63.7932 91.0888 63.7932 91.0888 63.5864V59.8643C91.2956 59.8643 91.4765 59.6575 91.6833 59.6575C91.6833 59.8901 91.8643 59.8901 91.8643 60.071Z" fill="#AF913B"/>
<path d="M95.7932 60.8465C95.5864 61.2342 95.4055 61.6219 95.0178 61.8287C94.63 62.2164 94.2423 62.6042 93.8546 62.8109C93.6478 62.8109 93.6478 62.8109 93.4669 62.8109C93.2601 63.0177 92.6914 63.1987 92.3037 63.4054H92.0969V63.6122H92.3037C92.6914 63.4054 93.2859 63.4054 93.4669 63.2245C93.6737 63.2245 93.6737 63.2245 93.8546 63.2245C94.2423 63.0177 94.63 62.8368 95.0178 62.63C95.4055 62.2423 95.7932 62.0355 96.1809 61.6478C96.5687 61.2601 96.7754 60.8723 97.1632 60.2778C97.5509 60.2778 97.5509 60.2778 97.5509 60.071C97.5509 60.071 97.5509 60.071 97.5509 59.8643L96.5687 59.6575C96.3619 60.071 96.1809 60.4588 95.7932 60.8465Z" fill="#AF913B"/>
<path d="M106.727 59.0888C106.52 59.2956 106.132 59.4766 105.952 59.6833V58.1066H106.934H107.141C107.347 57.8998 107.347 57.8998 107.347 57.8998C107.347 57.8998 107.347 57.8998 107.141 57.8998V57.693L106.934 57.4862L106.546 57.2795L105.952 57.874V56.2972H106.158V56.0905C106.158 55.8837 106.158 55.8837 105.952 55.8837L104.969 55.6769C105.176 56.0646 105.176 56.2714 105.176 56.84V57.8223C104.788 57.8223 104.582 57.6155 104.194 57.6155L104.401 58.0032C104.607 58.0032 104.995 58.0032 105.176 58.0032V59.7609C104.788 59.9677 104.401 60.1486 104.013 60.3554L104.401 61.1308H104.607H104.814V60.7431C105.021 60.7431 105.021 60.7431 105.202 60.5363V62.6817C105.202 62.8885 105.202 62.8885 104.995 62.8885H104.22V63.0953C104.607 63.0953 104.814 63.3021 104.814 63.3021C104.814 63.5089 104.814 63.5089 104.814 63.8966C105.021 63.8966 105.202 63.6898 105.59 63.6898C105.796 63.483 105.977 63.3021 105.977 62.9144V59.9935C106.184 59.7867 106.572 59.6058 106.96 59.2181L106.727 59.0888Z" fill="#AF913B"/>
<path d="M112.207 62.0356V59.8902H112.801H113.008C113.008 59.6834 113.008 59.6834 112.801 59.6834L112.207 59.0889L111.612 59.6834H111.018H109.855L109.648 59.4766L109.053 59.0889L108.666 59.6834H108.071H107.864C107.657 59.6834 107.477 59.6834 107.089 59.6834H106.882L106.727 59.5024L106.934 60.0969V62.6301C106.727 62.6301 106.727 62.6301 106.546 62.6301L106.753 63.4055H106.96C106.96 63.4055 106.96 63.4055 107.166 63.4055V63.1987C107.373 63.1987 107.554 62.9919 107.761 62.9919C107.968 62.9919 107.968 62.9919 108.149 62.7851C108.355 62.7851 108.355 62.7851 108.536 62.7851V63.7674C108.536 63.7674 108.743 63.9742 108.924 63.9742L109.131 63.7674C109.338 63.7674 109.338 63.7674 109.338 63.5606V62.5784V59.8385H109.725H109.932V62.5784H109.725H109.338L109.544 62.9661L109.751 62.7593H109.958H111.121L111.716 62.5525V62.7593L111.509 63.7415C111.509 63.7415 111.716 63.9483 111.897 63.9483L112.103 63.7415C112.31 63.7415 112.31 63.7415 112.31 63.5347V62.5525H113.086C113.086 62.5525 113.292 62.5525 113.292 62.3457H113.086L112.207 62.0356ZM108.485 62.4233C108.485 62.4233 108.278 62.4233 108.097 62.4233C107.89 62.4233 107.709 62.4233 107.709 62.4233V61.8288H108.097H108.485V62.4233ZM108.485 61.6478H108.097H107.709V60.8724H108.097H108.485V61.6478ZM108.485 60.6656H108.097H107.709V59.8902H107.916H108.123H108.51V60.6656H108.485ZM111.612 62.4233H111.018L110.423 62.6301V61.8546H111.018H111.612V62.4233ZM111.612 61.6478H111.018H110.423V60.8724H111.018H111.612V61.6478ZM111.612 60.6656H111.018H110.423V59.8902H111.018H111.612V60.6656Z" fill="#AF913B"/>
<path d="M107.89 56.5557V58.7011H107.115L107.322 59.0889L107.916 58.8821H108.123H109.674H110.656V59.2698C110.656 59.2698 110.656 59.4766 110.863 59.4766H111.07C111.07 59.4766 111.276 59.4766 111.276 59.2698C111.483 59.2698 111.483 59.2698 111.483 59.063V58.6753H112.853C112.853 58.6753 113.06 58.6753 113.06 58.4685H112.853L112.078 58.0808L111.69 58.4685H111.483V56.504H112.646C112.853 56.504 112.853 56.5041 112.853 56.2973C112.853 56.2973 112.853 56.0905 112.646 56.0905L112.052 55.7028L111.457 56.2973H111.07H109.7H108.536C108.33 56.2973 108.33 56.2973 108.149 56.0905C107.942 56.0905 107.554 56.0905 107.166 56.0905L107.373 56.4782C107.502 56.5557 107.709 56.5557 107.89 56.5557ZM108.691 56.5557H109.674H110.656V57.1503H109.674H108.691V56.5557ZM108.691 57.3312H109.674H110.656V57.9257H109.674H108.691V57.3312ZM108.691 58.1325H109.674H110.656V58.3393V58.5461L109.674 58.7528H108.691V58.1325Z" fill="#AF913B"/>
<path d="M128.233 60.6656L127.457 60.4588C126.863 61.2342 126.294 61.8288 125.493 62.4233C125.286 62.63 124.898 62.811 124.51 63.0178L124.123 63.2245C123.916 63.4313 123.735 63.4313 123.528 63.6123H123.321V63.8191H123.528C123.735 63.8191 123.916 63.6123 124.123 63.6123L124.51 63.4055C125.105 63.1987 125.493 63.0178 126.087 62.811C126.863 62.2165 127.457 61.6478 128.052 61.0533C128.439 61.0533 128.439 60.8465 128.439 60.8465C128.439 60.8465 128.439 60.6656 128.233 60.6656Z" fill="#AF913B"/>
<path d="M124.123 58.3134H124.329H124.536C125.131 58.1066 125.699 57.9256 126.113 57.7189C126.707 57.3311 127.095 57.1244 127.483 56.7366C127.69 56.5298 127.871 56.5298 127.871 56.5298C127.871 56.3231 127.664 56.3231 127.664 56.3231L126.682 56.1163C126.475 56.504 126.087 57.0985 125.518 57.2794C125.312 57.6672 124.924 57.8739 124.536 58.0549C124.329 58.0549 124.329 58.0549 124.149 58.0549V58.3134H124.123Z" fill="#AF913B"/>
<path d="M127.069 58.3134C126.682 58.9079 126.294 59.2956 125.699 59.6834C125.312 60.0711 124.924 60.2779 124.536 60.4588L124.149 60.6656L124.355 60.8724L124.562 60.6656C125.157 60.4588 125.725 60.2779 126.32 60.0711C126.914 59.6834 127.302 59.2956 127.897 58.7011C128.103 58.7011 128.103 58.7011 128.103 58.4944C128.103 58.4944 128.103 58.4944 127.897 58.4944L127.069 58.3134Z" fill="#AF913B"/>
<path d="M123.554 62.811C123.554 63.0177 123.554 63.0178 123.761 63.0178C123.968 63.0178 124.149 62.811 124.149 62.63C124.149 62.4232 123.942 62.4232 123.761 62.2423L123.554 62.0355L122.96 61.8287L122.753 62.0355C123.141 62.2423 123.347 62.4232 123.347 62.811H123.554Z" fill="#AF913B"/>
<path d="M119.832 62.4233C119.625 62.6301 119.444 62.811 119.237 63.0178V63.2246C119.625 63.2246 119.832 63.0178 120.013 63.0178C120.22 62.811 120.401 62.811 120.607 62.6301C120.607 62.4233 120.814 62.4233 120.814 62.4233C121.202 62.2165 121.202 62.2165 121.202 62.2165C121.202 62.0097 121.202 62.0097 120.995 62.0097L120.607 61.8029L120.401 61.5961C120.22 62.0355 120.013 62.2165 119.832 62.4233Z" fill="#AF913B"/>
<path d="M123.166 61.6478C123.166 61.6478 123.166 61.6478 123.554 61.6478H123.761C123.761 61.441 123.968 61.441 123.968 61.441C123.968 61.441 123.968 61.2342 123.761 61.0533V60.4588L123.968 60.252C124.174 60.252 124.174 60.252 124.174 60.252V60.0452L123.58 59.6575L123.192 60.0452H121.977H120.607V59.8384L119.832 59.6317C119.832 59.8384 119.832 60.0194 119.832 60.2262V60.8207C119.832 61.2084 119.832 61.4152 119.832 61.4152C119.832 61.622 120.039 61.622 120.22 61.622C120.426 61.622 120.426 61.622 120.426 61.622C120.633 61.4152 120.633 61.4152 120.633 61.4152V61.2084H121.615V62.7851C121.615 62.9919 121.615 62.9919 121.409 62.9919H120.633H120.426V63.1987H120.633C121.021 63.4055 121.228 63.4055 121.228 63.4055C121.228 63.6123 121.434 63.6123 121.434 64C121.434 64 121.641 63.7932 122.029 63.7932C122.236 63.5864 122.417 63.4055 122.417 63.0178V61.2601H123.192V61.6478H123.166ZM121.977 61.0533H120.607V60.2779H121.977H123.14V61.0533H121.977Z" fill="#AF913B"/>
<path d="M120.013 57.7189V58.4943C120.013 58.7011 120.013 58.7011 120.22 58.7011C120.22 58.7011 120.427 58.7011 120.607 58.7011C120.607 58.4943 120.814 58.4943 120.814 58.4943V58.2875H121.977H123.141V58.4943C123.141 58.4943 123.347 58.7011 123.528 58.7011C123.735 58.7011 123.735 58.4943 123.916 58.4943C123.916 58.4943 123.916 58.4943 123.916 58.2875V57.693V56.5298H124.123V56.3231V56.1163L123.528 55.9095L123.141 56.1163H121.977H120.814H120.607L119.91 55.9353C120.013 55.987 120.013 56.1421 120.013 56.2972V57.7189ZM120.814 56.5557H121.977H123.141V57.1502H121.977H120.814V56.5557ZM120.814 57.3311H121.977H123.141V58.1066H121.977H120.814V57.3311Z" fill="#AF913B"/>
<path d="M120.426 59.5024H120.633H122.003H123.58H124.174H124.562H124.769V59.2956V59.0888L124.562 58.882L124.174 58.6753H123.968L123.58 59.063H123.373H122.391V58.8562H122.598V58.6494C122.598 58.6494 122.598 58.4426 122.391 58.4426H121.977H121.59C121.59 58.6494 121.59 58.6494 121.59 58.8303V59.0371H120.607H120.426C120.039 59.0371 119.651 59.0371 119.263 59.0371L119.47 59.4249C119.625 59.5024 120.013 59.5024 120.426 59.5024Z" fill="#AF913B"/>
</svg>
